<?xml version="1.0" encoding="iso-8859-1"?>
<!-- Generator: Adobe Illustrator 19.0.0, SVG Export Plug-In . SVG Version: 6.00 Build 0)  -->
<svg version="1.1" id="Layer_1" xmlns="http://www.w3.org/2000/svg" xmlns:xlink="http://www.w3.org/1999/xlink" x="0px" y="0px"
	 viewBox="0 0 512 512" style="enable-background:new 0 0 512 512;" xml:space="preserve">
<g>
	<g>
		<g>
			<path d="M0,61.793v185.379h247.172V0H61.793C27.727,0,0,27.727,0,61.793z M79.448,123.586h44.138V79.448
				c0-4.882,3.946-8.828,8.828-8.828c4.882,0,8.828,3.946,8.828,8.828v44.138h44.138c4.882,0,8.828,3.946,8.828,8.828
				c0,4.882-3.946,8.828-8.828,8.828h-44.138v44.138c0,4.882-3.946,8.828-8.828,8.828c-4.882,0-8.828-3.946-8.828-8.828v-44.138
				H79.448c-4.882,0-8.828-3.946-8.828-8.828C70.621,127.532,74.567,123.586,79.448,123.586z"/>
			<path d="M0,450.207C0,484.273,27.727,512,61.793,512h185.379V264.828H0V450.207z M82.035,341.689
				c-3.452-3.452-3.452-9.031,0-12.482c3.452-3.452,9.031-3.452,12.482,0l37.897,37.897l37.897-37.897
				c3.452-3.452,9.031-3.452,12.482,0c3.452,3.452,3.452,9.031,0,12.482l-37.897,37.897l37.897,37.897
				c3.452,3.452,3.452,9.031,0,12.482c-1.721,1.721-3.981,2.586-6.241,2.586c-2.26,0-4.52-0.865-6.241-2.586l-37.897-37.897
				l-37.897,37.897c-1.721,1.721-3.981,2.586-6.241,2.586c-2.26,0-4.52-0.865-6.241-2.586c-3.452-3.452-3.452-9.031,0-12.482
				l37.897-37.897L82.035,341.689z"/>
			<path d="M264.828,512h185.379C484.273,512,512,484.273,512,450.207V264.828H264.828V512z M326.621,344.276h105.931
				c4.882,0,8.828,3.946,8.828,8.828s-3.946,8.828-8.828,8.828H326.621c-4.882,0-8.828-3.946-8.828-8.828
				S321.739,344.276,326.621,344.276z M326.621,397.241h105.931c4.882,0,8.828,3.946,8.828,8.828s-3.946,8.828-8.828,8.828H326.621
				c-4.882,0-8.828-3.946-8.828-8.828S321.739,397.241,326.621,397.241z"/>
			<path d="M450.207,0H264.828v247.172H512V61.793C512,27.727,484.273,0,450.207,0z M432.552,141.241H326.621
				c-4.882,0-8.828-3.946-8.828-8.828c0-4.882,3.946-8.828,8.828-8.828h105.931c4.882,0,8.828,3.946,8.828,8.828
				C441.379,137.295,437.433,141.241,432.552,141.241z"/>
		</g>
	</g>
</g>
<g>
</g>
<g>
</g>
<g>
</g>
<g>
</g>
<g>
</g>
<g>
</g>
<g>
</g>
<g>
</g>
<g>
</g>
<g>
</g>
<g>
</g>
<g>
</g>
<g>
</g>
<g>
</g>
<g>
</g>
</svg>
