<?xml version="1.0" encoding="iso-8859-1"?>
<!-- Generator: Adobe Illustrator 16.0.0, SVG Export Plug-In . SVG Version: 6.00 Build 0)  -->
<!DOCTYPE svg PUBLIC "-//W3C//DTD SVG 1.1//EN" "http://www.w3.org/Graphics/SVG/1.1/DTD/svg11.dtd">
<svg version="1.1" id="Capa_1" xmlns="http://www.w3.org/2000/svg" xmlns:xlink="http://www.w3.org/1999/xlink" x="0px" y="0px"
	 width="612.1px" height="612.1px" viewBox="0 0 612.1 612.1" style="enable-background:new 0 0 612.1 612.1;" xml:space="preserve"
	>
<g>
	<path d="M606.6,599.25c-3,0-5.399-2.4-5.399-5.4V23.65H473.3v570.2c0,3-2.399,5.4-5.399,5.4H376.3c-3,0-5.399-2.4-5.399-5.4v-364.9
		H243v364.9c0,3-2.4,5.4-5.4,5.4h-93.5c-3,0-5.4-2.4-5.4-5.4v-201.8H10.8v201.7c0,3-2.4,5.399-5.4,5.399s-5.4-2.3-5.4-5.3v-207.1
		c0-3,2.4-5.4,5.4-5.4h138.7c3,0,5.4,2.4,5.4,5.4v201.7h82.7v-364.9c0-3,2.4-5.4,5.4-5.4h138.7c3,0,5.4,2.4,5.4,5.4v364.9H462.6
		V18.25c0-3,2.4-5.4,5.4-5.4h138.7c3,0,5.399,2.4,5.399,5.4v575.6C612,596.85,609.6,599.25,606.6,599.25z"/>
</g>
<g>
</g>
<g>
</g>
<g>
</g>
<g>
</g>
<g>
</g>
<g>
</g>
<g>
</g>
<g>
</g>
<g>
</g>
<g>
</g>
<g>
</g>
<g>
</g>
<g>
</g>
<g>
</g>
<g>
</g>
</svg>
