<?xml version="1.0" encoding="iso-8859-1"?>
<!-- Generator: Adobe Illustrator 16.0.0, SVG Export Plug-In . SVG Version: 6.00 Build 0)  -->
<!DOCTYPE svg PUBLIC "-//W3C//DTD SVG 1.1//EN" "http://www.w3.org/Graphics/SVG/1.1/DTD/svg11.dtd">
<svg version="1.1" id="Capa_1" xmlns="http://www.w3.org/2000/svg" xmlns:xlink="http://www.w3.org/1999/xlink" x="0px" y="0px"
	 width="32px" height="32px" viewBox="0 0 610.926 610.927" style="enable-background:new 0 0 610.926 610.927;"
	 xml:space="preserve">
<g>
	<g>
		<path d="M324.59,330.401H5.127c0,138.58,140.215,280.525,300.124,280.525c166.273,0,301.08-134.812,301.08-301.08
			c0-48.147-11.576-93.463-31.68-133.817L324.59,330.401z"/>
		<path d="M183.376,25.76c2.878,5.149,141.917,241.568,141.917,241.568L555.42,134.246C474.129,11.836,316.497-33.308,183.376,25.76
			z M482.926,120.93L342.45,202.168c-30.457-51.791-64.256-109.29-87.775-149.328c16.418-3.342,33.172-5.03,50.169-5.03
			C372.436,47.811,436.084,74.485,482.926,120.93z"/>
		<path d="M138.49,50.393c-80.803,53.65-128.157,140.473-133.894,231.8l267.817-0.21L138.49,50.393z M125.126,122.79l64.447,111.446
			l-128.912,0.101C72.074,192.061,94.187,153.797,125.126,122.79z"/>
	</g>
</g>
<g>
</g>
<g>
</g>
<g>
</g>
<g>
</g>
<g>
</g>
<g>
</g>
<g>
</g>
<g>
</g>
<g>
</g>
<g>
</g>
<g>
</g>
<g>
</g>
<g>
</g>
<g>
</g>
<g>
</g>
</svg>
