<?xml version="1.0" encoding="iso-8859-1"?>
<!-- Generator: Adobe Illustrator 19.0.0, SVG Export Plug-In . SVG Version: 6.00 Build 0)  -->
<svg version="1.1" id="Layer_1" xmlns="http://www.w3.org/2000/svg" xmlns:xlink="http://www.w3.org/1999/xlink" x="0px" y="0px"
	 viewBox="0 0 353.341 353.341" style="enable-background:new 0 0 353.341 353.341;" xml:space="preserve">
<g id="XMLID_475_">
	<path id="XMLID_476_" d="M192.38,210.585c-5.758,10.464-9.042,22.472-9.042,35.235c0,40.436,32.897,73.334,73.334,73.334
		c14.804,0,28.587-4.423,40.126-11.998l30.938,30.938c2.929,2.929,6.768,4.393,10.607,4.393s7.678-1.464,10.606-4.394
		c5.858-5.858,5.858-15.355,0-21.213l-30.938-30.938c7.572-11.538,11.995-25.32,11.995-40.123c0-0.078-0.006-0.154-0.006-0.231
		V25.854c0-8.284-6.716-15-15-15c-8.284,0-15,6.716-15,15v160.851c-8.734-6.419-18.937-10.94-30-12.981V25.854
		c0-8.284-6.716-15-15-15s-15,6.716-15,15v148.568c-11.194,2.614-21.419,7.779-30,14.876V25.854c0-8.284-6.716-15-15-15
		c-8.284,0-15,6.716-15,15v169.975C180,203.217,185.347,209.344,192.38,210.585z M256.672,202.488
		c23.817,0,43.202,19.314,43.328,43.102v0.231c0,0.026,0.004,0.051,0.004,0.077c-0.042,23.859-19.464,43.257-43.332,43.257
		c-23.895,0-43.334-19.44-43.334-43.334C213.338,221.927,232.777,202.488,256.672,202.488z"/>
	<path id="XMLID_479_" d="M15,300.815c8.284,0,15-6.716,15-15V25.854c0-8.284-6.716-15-15-15s-15,6.716-15,15v259.961
		C0,294.099,6.716,300.815,15,300.815z"/>
	<path id="XMLID_481_" d="M75,210.828c8.284,0,15-6.716,15-15V25.854c0-8.284-6.716-15-15-15s-15,6.716-15,15v169.975
		C60,204.113,66.716,210.828,75,210.828z"/>
	<path id="XMLID_482_" d="M75,300.815c8.284,0,15-6.716,15-15v-29.986c0-8.284-6.716-15-15-15s-15,6.716-15,15v29.986
		C60,294.099,66.716,300.815,75,300.815z"/>
	<path id="XMLID_483_" d="M135,210.828c8.284,0,15-6.716,15-15V25.854c0-8.284-6.716-15-15-15s-15,6.716-15,15v169.975
		C120,204.113,126.716,210.828,135,210.828z"/>
	<path id="XMLID_484_" d="M135,300.815c8.284,0,15-6.716,15-15v-29.986c0-8.284-6.716-15-15-15s-15,6.716-15,15v29.986
		C120,294.099,126.716,300.815,135,300.815z"/>
</g>
<g>
</g>
<g>
</g>
<g>
</g>
<g>
</g>
<g>
</g>
<g>
</g>
<g>
</g>
<g>
</g>
<g>
</g>
<g>
</g>
<g>
</g>
<g>
</g>
<g>
</g>
<g>
</g>
<g>
</g>
</svg>
