<?xml version="1.0" encoding="iso-8859-1"?>
<!-- Generator: Adobe Illustrator 19.0.0, SVG Export Plug-In . SVG Version: 6.00 Build 0)  -->
<svg version="1.1" id="Layer_1" xmlns="http://www.w3.org/2000/svg" xmlns:xlink="http://www.w3.org/1999/xlink" x="0px" y="0px"
	 viewBox="0 0 512 512" style="enable-background:new 0 0 512 512;" xml:space="preserve">
<g>
	<g>
		<path d="M240.93,102.639c-5.043-1.203-10.01-2.295-14.899-3.302c-2.441-0.495-4.565,1.152-5.018,3.593
			c-3.797,20.651-19.959,42.445-42.027,55.561c-2.765,1.647-2.671,5.666,0.12,7.27c18.893,10.871,33.527,26.675,39.296,44.015
			c0.572,1.749,2.432,3.558,4.267,3.558h2.406c3.251-0.811,4.582-3.712,5.18-7.006l17.067-93.867
			C248.133,108.032,245.3,103.68,240.93,102.639z"/>
	</g>
</g>
<g>
	<g>
		<path d="M200.44,94.891c-84.642-12.245-145.178,5.086-175.462,27.861c-9.967,7.484-18.125,15.906-22.536,24.67
			c-1.417,2.833,0.717,6.178,3.891,6.178h130.202c34.483,0,62.95-30.242,67.541-53.453C204.561,97.681,202.932,95.258,200.44,94.891
			z"/>
	</g>
</g>
<g>
	<g>
		<path d="M452.267,0c-4.71,0-8.533,3.814-8.533,8.533s3.823,8.533,8.533,8.533c17.818,0,42.667,55.194,42.667,145.067
			S470.085,307.2,452.267,307.2c-4.71,0-8.533,3.814-8.533,8.533s3.823,8.533,8.533,8.533c38.801,0,59.733-83.533,59.733-162.133
			S491.068,0,452.267,0z"/>
	</g>
</g>
<g>
	<g>
		<path d="M384,34.134c-4.71,0-8.533,3.814-8.533,8.533S379.29,51.2,384,51.2c20.181,0,42.667,45.559,42.667,110.933
			S404.182,273.067,384,273.067c-4.71,0-8.533,3.814-8.533,8.533c0,4.719,3.823,8.533,8.533,8.533
			c34.057,0,59.733-55.023,59.733-128S418.057,34.134,384,34.134z"/>
	</g>
</g>
<g>
	<g>
		<path d="M315.734,68.267c-4.71,0-8.533,3.814-8.533,8.533s3.823,8.533,8.533,8.533c23.125,0,42.667,35.166,42.667,76.8
			c0,41.634-19.541,76.8-42.667,76.8c-4.71,0-8.533,3.814-8.533,8.533s3.823,8.533,8.533,8.533
			c33.493,0,59.733-41.233,59.733-93.867S349.227,68.267,315.734,68.267z"/>
	</g>
</g>
<g>
	<g>
		<path d="M145.178,460.8c-18.637,0.077-33.869-18.62-34.236-41.788l18.782-87.663c0.64-2.995-1.954-5.683-4.966-5.111
			c-20.565,3.874-47.957,15.377-47.957,49.229c0,57.301-40.892,81.246-73.574,89.771C1.4,465.715,0.009,467.294,0,469.18
			C-0.111,493.176,26.164,512,59.734,512h85.333c4.71,0,8.533-3.823,8.533-8.533v-34.133
			C153.6,464.657,149.854,460.783,145.178,460.8z"/>
	</g>
</g>
<g>
	<g>
		<path d="M200.704,213.888c-9.472-20.975-34.603-43.221-64.171-43.221H5.922c-3.055,0-5.163,3.115-3.985,5.939
			c5.922,14.251,20.489,26.837,38.426,33.681C19.234,275.456,6.921,367.386,1.681,442.044c-0.213,3.021,2.765,5.171,5.623,4.181
			c25.216-8.789,52.429-28.868,52.429-70.758c0-44.476,37.41-64,72.994-67.908c2.167-0.239,3.806-2.014,3.806-4.19V294.4
			c0-2.355,1.911-4.267,4.267-4.267h12.8c2.799,0,5.419-1.374,7.014-3.678c1.596-2.304,1.954-5.231,0.981-7.851
			c-3.49-9.31-7.851-39.885,6.792-62.08c1.22-1.852,3.755-2.347,5.675-1.237l9.856,5.675c1.826,0.896,3.9,1.143,5.888,0.64
			l7.962-1.988C200.278,218.983,201.771,216.243,200.704,213.888z"/>
	</g>
</g>
<g>
</g>
<g>
</g>
<g>
</g>
<g>
</g>
<g>
</g>
<g>
</g>
<g>
</g>
<g>
</g>
<g>
</g>
<g>
</g>
<g>
</g>
<g>
</g>
<g>
</g>
<g>
</g>
<g>
</g>
</svg>
