<?xml version="1.0" encoding="iso-8859-1"?>
<!-- Generator: Adobe Illustrator 18.0.0, SVG Export Plug-In . SVG Version: 6.00 Build 0)  -->
<!DOCTYPE svg PUBLIC "-//W3C//DTD SVG 1.1//EN" "http://www.w3.org/Graphics/SVG/1.1/DTD/svg11.dtd">
<svg version="1.1" id="Capa_1" xmlns="http://www.w3.org/2000/svg" xmlns:xlink="http://www.w3.org/1999/xlink" x="0px" y="0px"
	 viewBox="0 0 486.4 486.4" style="enable-background:new 0 0 486.4 486.4;" xml:space="preserve">
<g>
	<path d="M77.9,124.773c-5.799,0-10.5,4.701-10.5,10.5v211.498c0,5.799,4.701,10.5,10.5,10.5c5.799,0,10.5-4.701,10.5-10.5V135.273
		C88.4,129.474,83.699,124.773,77.9,124.773z"/>
	<path d="M111.372,124.773c-5.799,0-10.5,4.701-10.5,10.5v158.179c0,5.799,4.701,10.5,10.5,10.5c5.799,0,10.5-4.701,10.5-10.5
		V135.273C121.872,129.474,117.171,124.773,111.372,124.773z"/>
	<path d="M150.472,124.773c-5.799,0-10.5,4.701-10.5,10.5v158.179c0,5.799,4.701,10.5,10.5,10.5c5.799,0,10.5-4.701,10.5-10.5
		V135.273C160.972,129.474,156.271,124.773,150.472,124.773z"/>
	<path d="M311.149,124.773c-5.799,0-10.5,4.701-10.5,10.5v158.179c0,5.799,4.701,10.5,10.5,10.5c5.799,0,10.5-4.701,10.5-10.5
		V135.273C321.649,129.474,316.948,124.773,311.149,124.773z"/>
	<path d="M230.995,124.773c-5.799,0-10.5,4.701-10.5,10.5v158.179c0,5.799,4.701,10.5,10.5,10.5s10.5-4.701,10.5-10.5V135.273
		C241.495,129.474,236.794,124.773,230.995,124.773z"/>
	<path d="M274.123,124.773c-5.799,0-10.5,4.701-10.5,10.5v158.179c0,5.799,4.701,10.5,10.5,10.5c5.799,0,10.5-4.701,10.5-10.5
		V135.273C284.623,129.474,279.922,124.773,274.123,124.773z"/>
	<path d="M198.091,124.773c-5.799,0-10.5,4.701-10.5,10.5v158.179c0,5.799,4.701,10.5,10.5,10.5c5.799,0,10.5-4.701,10.5-10.5
		V135.273C208.591,129.474,203.89,124.773,198.091,124.773z"/>
	<path d="M361.675,124.773c-5.799,0-10.5,4.701-10.5,10.5v158.179c0,5.799,4.701,10.5,10.5,10.5c5.799,0,10.5-4.701,10.5-10.5
		V135.273C372.175,129.474,367.474,124.773,361.675,124.773z"/>
	<path d="M411.083,124.773c-5.799,0-10.5,4.701-10.5,10.5v211.498c0,5.799,4.701,10.5,10.5,10.5s10.5-4.701,10.5-10.5V135.273
		C421.583,129.474,416.882,124.773,411.083,124.773z"/>
	<path d="M455.211,62.346L31.188,62.346C13.991,62.346,0,76.337,0,93.535v299.33c0,17.197,13.991,31.189,31.188,31.189l424.023,0
		c17.197,0,31.189-13.991,31.189-31.189V93.535C486.4,76.338,472.409,62.346,455.211,62.346z M465.4,392.865
		c0,5.618-4.57,10.189-10.189,10.189l-424.023,0c-5.618,0-10.188-4.571-10.188-10.189V93.535c0-5.618,4.57-10.189,10.188-10.189
		l424.023,0.001c5.618,0,10.189,4.571,10.189,10.188V392.865z"/>
</g>
<g>
</g>
<g>
</g>
<g>
</g>
<g>
</g>
<g>
</g>
<g>
</g>
<g>
</g>
<g>
</g>
<g>
</g>
<g>
</g>
<g>
</g>
<g>
</g>
<g>
</g>
<g>
</g>
<g>
</g>
</svg>
