<?xml version="1.0" encoding="iso-8859-1"?>
<!-- Generator: Adobe Illustrator 16.0.0, SVG Export Plug-In . SVG Version: 6.00 Build 0)  -->
<!DOCTYPE svg PUBLIC "-//W3C//DTD SVG 1.1//EN" "http://www.w3.org/Graphics/SVG/1.1/DTD/svg11.dtd">
<svg version="1.1" id="Capa_1" xmlns="http://www.w3.org/2000/svg" xmlns:xlink="http://www.w3.org/1999/xlink" x="0px" y="0px"
	 width="111.669px" height="111.669px" viewBox="0 0 111.669 111.669" style="enable-background:new 0 0 111.669 111.669;"
	 xml:space="preserve">
<g>
	<path d="M108.04,6.683h-29v29h29V6.683z M103.04,30.683h-19v-19h19V30.683z M15.125,73.487C6.785,73.487,0,80.272,0,88.612
		c0,8.341,6.785,15.125,15.125,15.125S30.25,96.953,30.25,88.612C30.25,80.272,23.465,73.487,15.125,73.487z M15.125,98.737
		C9.542,98.737,5,94.195,5,88.612s4.542-10.125,10.125-10.125S25.25,83.029,25.25,88.612S20.708,98.737,15.125,98.737z
		 M102.595,72.896H84.445l-9.074,15.717l9.074,15.719h18.148l9.075-15.719L102.595,72.896z M99.708,99.332H87.333l-6.188-10.72
		l6.188-10.717h12.375l6.188,10.717L99.708,99.332z M17.625,69.48h-5V54.313h0.052v-2.346h64.806h13.557V40.635h5v13.679h0.002
		V69.48h-5V56.968H77.48H56.148V69.48h-5V56.968H17.625V69.48z M35.76,84.014l6.814,20.972h22.051l6.814-20.972L53.6,71.054
		L35.76,84.014z M60.992,99.985H46.207l-4.569-14.062l11.961-8.689l11.961,8.689L60.992,99.985z"/>
</g>
<g>
</g>
<g>
</g>
<g>
</g>
<g>
</g>
<g>
</g>
<g>
</g>
<g>
</g>
<g>
</g>
<g>
</g>
<g>
</g>
<g>
</g>
<g>
</g>
<g>
</g>
<g>
</g>
<g>
</g>
</svg>
