<?xml version="1.0" encoding="iso-8859-1"?>
<!-- Generator: Adobe Illustrator 18.0.0, SVG Export Plug-In . SVG Version: 6.00 Build 0)  -->
<!DOCTYPE svg PUBLIC "-//W3C//DTD SVG 1.1//EN" "http://www.w3.org/Graphics/SVG/1.1/DTD/svg11.dtd">
<svg version="1.1" id="Capa_1" xmlns="http://www.w3.org/2000/svg" xmlns:xlink="http://www.w3.org/1999/xlink" x="0px" y="0px"
	 viewBox="0 0 512 512" style="enable-background:new 0 0 512 512;" xml:space="preserve">
<g>
	<path d="M480,128H368l-23.156-46.312C339.422,70.848,328.344,64,316.223,64H195.777c-12.121,0-23.199,6.848-28.621,17.688L144,128
		H32c-17.672,0-32,14.326-32,32v256c0,17.673,14.328,32,32,32h448c17.672,0,32-14.327,32-32V160C512,142.326,497.672,128,480,128z
		 M256,416c-70.691,0-128-57.308-128-128s57.309-128,128-128s128,57.308,128,128S326.691,416,256,416z"/>
	<circle cx="256" cy="288" r="64"/>
</g>
<g>
</g>
<g>
</g>
<g>
</g>
<g>
</g>
<g>
</g>
<g>
</g>
<g>
</g>
<g>
</g>
<g>
</g>
<g>
</g>
<g>
</g>
<g>
</g>
<g>
</g>
<g>
</g>
<g>
</g>
</svg>
