<?xml version="1.0" encoding="iso-8859-1"?>
<!-- Generator: Adobe Illustrator 19.0.0, SVG Export Plug-In . SVG Version: 6.00 Build 0)  -->
<svg version="1.1" id="Layer_1" xmlns="http://www.w3.org/2000/svg" xmlns:xlink="http://www.w3.org/1999/xlink" x="0px" y="0px"
	 viewBox="0 0 512 512" style="enable-background:new 0 0 512 512;" xml:space="preserve">
<g>
	<g>
		<path d="M501.801,120.351h-25.498V89.753c0-5.632-4.566-10.199-10.199-10.199H399.12c-5.633,0-10.199,4.567-10.199,10.199v30.598
			H123.079V89.753c0-5.632-4.566-10.199-10.199-10.199H45.896c-5.633,0-10.199,4.567-10.199,10.199v30.598H10.199
			C4.566,120.351,0,124.918,0,130.55v291.697c0,5.632,4.566,10.199,10.199,10.199h491.602c5.633,0,10.199-4.567,10.199-10.199
			V130.55C512,124.918,507.434,120.351,501.801,120.351z M409.32,99.952h46.585v19.888H409.32V99.952z M56.096,99.952h46.585v19.888
			H56.096V99.952z M491.602,412.048H20.398V140.749h471.203V412.048z"/>
	</g>
</g>
<g>
	<g>
		<path d="M135.139,179.506c-53.427,0-96.892,43.466-96.892,96.892c0,53.426,43.466,96.892,96.892,96.892
			c53.426,0,96.892-43.466,96.892-96.892C232.032,222.972,188.566,179.506,135.139,179.506z M135.139,352.892
			c-42.179,0-76.494-34.315-76.494-76.494c0-42.179,34.315-76.494,76.494-76.494c42.179,0,76.494,34.315,76.494,76.494
			C211.633,318.577,177.318,352.892,135.139,352.892z"/>
	</g>
</g>
<g>
	<g>
		<path d="M135.139,223.993c-28.896,0-52.405,23.509-52.405,52.406c0,28.896,23.508,52.406,52.405,52.406
			c28.896,0,52.406-23.509,52.406-52.406C187.545,247.502,164.036,223.993,135.139,223.993z M135.139,308.406
			c-17.649,0-32.006-14.358-32.006-32.007s14.357-32.007,32.006-32.007c17.649,0,32.007,14.358,32.007,32.007
			C167.147,294.047,152.788,308.406,135.139,308.406z"/>
	</g>
</g>
<g>
	<g>
		<path d="M376.861,179.506c-53.427,0-96.892,43.466-96.892,96.892c0,53.426,43.466,96.892,96.892,96.892
			c53.426,0,96.892-43.466,96.892-96.892C473.753,222.972,430.287,179.506,376.861,179.506z M376.861,352.892
			c-42.179,0-76.494-34.315-76.494-76.494c0-42.179,34.315-76.494,76.494-76.494c42.179,0,76.494,34.315,76.494,76.494
			C453.355,318.577,419.039,352.892,376.861,352.892z"/>
	</g>
</g>
<g>
	<g>
		<path d="M376.861,223.993c-28.896,0-52.405,23.509-52.405,52.406c0,28.896,23.508,52.406,52.405,52.406
			c28.896,0,52.406-23.509,52.406-52.406C429.266,247.502,405.757,223.993,376.861,223.993z M376.861,308.406
			c-17.649,0-32.006-14.358-32.006-32.007s14.357-32.007,32.006-32.007c17.649,0,32.007,14.358,32.007,32.007
			C408.868,294.047,394.509,308.406,376.861,308.406z"/>
	</g>
</g>
<g>
	<g>
		<path d="M256,161.912c-5.633,0-10.199,4.567-10.199,10.199v135.649c0,5.632,4.566,10.199,10.199,10.199
			c5.633,0,10.199-4.567,10.199-10.199V172.112C266.199,166.48,261.633,161.912,256,161.912z"/>
	</g>
</g>
<g>
	<g>
		<path d="M256,334.279c-5.633,0-10.199,4.567-10.199,10.199v12.239c0,5.632,4.566,10.199,10.199,10.199
			c5.633,0,10.199-4.567,10.199-10.199v-12.239C266.199,338.846,261.633,334.279,256,334.279z"/>
	</g>
</g>
<g>
</g>
<g>
</g>
<g>
</g>
<g>
</g>
<g>
</g>
<g>
</g>
<g>
</g>
<g>
</g>
<g>
</g>
<g>
</g>
<g>
</g>
<g>
</g>
<g>
</g>
<g>
</g>
<g>
</g>
</svg>
