<?xml version="1.0" encoding="iso-8859-1"?>
<!-- Generator: Adobe Illustrator 19.0.0, SVG Export Plug-In . SVG Version: 6.00 Build 0)  -->
<svg version="1.1" id="Layer_1" xmlns="http://www.w3.org/2000/svg" xmlns:xlink="http://www.w3.org/1999/xlink" x="0px" y="0px"
	 viewBox="0 0 490 490" style="enable-background:new 0 0 490 490;" xml:space="preserve">
<g>
	<g>
		<g>
			<path d="M470,120c11.028,0,20-8.972,20-20V20c0-11.028-8.972-20-20-20H20C8.972,0,0,8.972,0,20v80c0,11.028,8.972,20,20,20h15
				v250H20c-11.028,0-20,8.972-20,20v80c0,11.028,8.972,20,20,20h450c11.028,0,20-8.972,20-20v-80c0-11.028-8.972-20-20-20h-15V120
				H470z M325,470H165v-40h160V470z M470,390l0.002,80H345v-50c0-5.522-4.478-10-10-10H155c-5.523,0-10,4.478-10,10v50H20v-80H470z
				 M220,190v-35h50v35H220z M270,210v15h-50v-15H270z M55,135v-15h380v15H55z M200,155v80c0,5.523,4.477,10,10,10h25v25h20v-25h25
				c5.522,0,10-4.477,10-10v-80h145v15H305v20h85v180H100V190h85v-20H55v-15H200z M435,190v180h-25V190H435z M80,190v180H55V190H80z
				 M20,100V20h450l0.002,80H20z"/>
			<path d="M290,35h-90c-5.523,0-10,4.478-10,10v30c0,5.523,4.477,10,10,10h90c5.522,0,10-4.477,10-10V45
				C300,39.478,295.522,35,290,35z M280,65h-70V55h70V65z"/>
			<rect x="315" y="50" width="20" height="20"/>
			<rect x="355" y="50" width="60" height="20"/>
			<rect x="75" y="50" width="60" height="20"/>
			<rect x="155" y="50" width="20" height="20"/>
			<rect x="215" y="440" width="60" height="20"/>
			<rect x="425" y="420" width="20" height="20"/>
			<rect x="45" y="420" width="20" height="20"/>
		</g>
	</g>
</g>
<g>
</g>
<g>
</g>
<g>
</g>
<g>
</g>
<g>
</g>
<g>
</g>
<g>
</g>
<g>
</g>
<g>
</g>
<g>
</g>
<g>
</g>
<g>
</g>
<g>
</g>
<g>
</g>
<g>
</g>
</svg>
