<svg id="svg" version="1.1" xmlns="http://www.w3.org/2000/svg" xmlns:xlink="http://www.w3.org/1999/xlink" width="400" height="211.61290322580646" viewBox="0, 0, 400,211.61290322580646"><g id="svgg"><path id="path0" d="M206.878 53.416 C 193.855 57.064,186.152 74.432,193.149 84.370 C 196.786 89.537,205.957 90.534,213.096 86.540 C 225.625 79.529,228.965 59.232,218.413 54.231 C 215.337 52.774,210.414 52.426,206.878 53.416 M80.657 53.430 C 78.190 53.694,77.672 53.930,77.672 54.789 C 77.672 54.963,77.534 55.683,77.366 56.389 C 77.198 57.094,76.339 61.101,75.456 65.291 C 74.574 69.481,73.714 73.529,73.545 74.286 C 72.510 78.939,70.688 87.727,70.688 88.064 C 70.688 88.440,70.887 88.466,73.829 88.466 L 76.969 88.466 77.240 87.249 C 77.834 84.575,78.081 83.441,78.312 82.328 C 79.072 78.658,79.582 76.239,79.682 75.823 C 79.791 75.364,79.855 75.353,81.644 75.476 C 91.426 76.151,99.656 69.749,99.679 61.447 C 99.698 54.643,93.543 52.049,80.657 53.430 M141.595 53.449 C 138.872 53.761,138.755 53.836,138.522 55.406 C 138.440 55.954,138.250 56.926,138.099 57.566 C 137.947 58.206,137.665 59.492,137.471 60.423 C 137.277 61.354,137.032 62.497,136.927 62.963 C 136.822 63.429,136.015 67.238,135.135 71.429 C 134.254 75.619,133.397 79.667,133.229 80.423 C 132.443 83.972,131.640 87.880,131.640 88.158 C 131.640 88.413,132.176 88.466,134.787 88.466 L 137.934 88.466 138.166 87.566 C 138.293 87.071,138.841 84.524,139.384 81.905 C 139.926 79.286,140.532 76.476,140.729 75.661 L 141.088 74.180 143.613 74.190 C 148.389 74.210,148.802 74.821,149.191 82.438 C 149.322 85.001,149.504 87.382,149.597 87.729 L 149.765 88.360 152.909 88.419 C 156.565 88.487,156.405 88.573,156.171 86.667 C 156.071 85.852,155.897 83.233,155.784 80.847 C 155.522 75.305,155.104 73.896,153.276 72.389 C 152.855 72.042,152.553 71.731,152.604 71.699 C 152.656 71.667,153.358 71.311,154.165 70.910 C 161.821 67.096,163.093 56.747,156.223 54.169 C 153.405 53.112,147.200 52.807,141.595 53.449 M262.965 53.598 C 262.916 53.743,262.785 54.339,262.674 54.921 C 262.434 56.183,261.929 58.591,261.478 60.635 C 261.298 61.450,261.002 62.831,260.821 63.704 C 260.640 64.577,260.410 65.672,260.309 66.138 C 260.032 67.419,258.863 72.912,258.485 74.709 C 258.302 75.582,258.028 76.868,257.877 77.566 C 257.725 78.265,257.440 79.598,257.242 80.529 C 257.044 81.460,256.759 82.794,256.610 83.492 C 255.873 86.939,255.680 88.145,255.838 88.304 C 255.934 88.400,257.380 88.451,259.052 88.419 L 262.093 88.360 263.326 82.540 C 264.004 79.339,264.714 76.029,264.904 75.185 L 265.248 73.651 271.554 73.651 C 275.972 73.651,277.902 73.580,278.005 73.414 C 278.325 72.897,279.193 68.594,279.030 68.332 C 278.968 68.231,276.102 68.148,272.661 68.148 L 266.406 68.148 266.506 67.672 C 266.562 67.410,266.913 65.747,267.286 63.975 C 267.660 62.204,268.078 60.300,268.216 59.743 L 268.466 58.730 275.348 58.674 L 282.230 58.619 282.703 56.346 C 282.963 55.097,283.175 53.907,283.175 53.704 C 283.175 53.223,263.129 53.118,262.965 53.598 M330.581 53.810 C 330.469 54.071,330.174 55.286,329.925 56.508 C 329.677 57.730,329.353 59.302,329.206 60.000 C 329.059 60.698,328.788 61.984,328.605 62.857 C 328.140 65.068,327.112 69.888,326.460 72.910 C 326.160 74.307,325.776 76.116,325.609 76.931 C 325.442 77.746,325.157 79.079,324.977 79.894 C 324.797 80.709,324.511 82.042,324.342 82.857 C 324.173 83.672,323.853 85.196,323.630 86.243 C 323.408 87.291,323.268 88.220,323.319 88.307 C 323.452 88.536,329.476 88.503,329.619 88.272 C 329.684 88.165,330.455 84.713,331.330 80.600 C 332.205 76.487,333.062 72.479,333.233 71.693 C 333.405 70.907,333.685 69.622,333.856 68.836 C 334.028 68.050,334.604 65.312,335.138 62.751 C 336.269 57.324,336.472 56.380,336.845 54.831 C 337.218 53.286,337.313 53.333,333.845 53.333 C 330.873 53.333,330.779 53.347,330.581 53.810 M89.760 58.409 C 94.947 59.899,93.675 67.351,87.831 69.722 C 87.140 70.002,86.109 70.136,84.077 70.211 C 80.695 70.335,80.801 70.447,81.457 67.432 C 81.714 66.254,82.244 63.783,82.637 61.940 C 83.029 60.098,83.397 58.543,83.453 58.487 C 83.929 58.011,88.192 57.958,89.760 58.409 M150.636 58.291 C 156.228 59.779,154.606 67.455,148.391 68.918 C 146.498 69.364,142.222 69.308,142.222 68.837 C 142.222 68.634,142.606 66.658,143.076 64.446 C 144.457 57.940,144.309 58.426,144.942 58.287 C 145.250 58.219,145.598 58.132,145.714 58.093 C 146.303 57.897,149.663 58.032,150.636 58.291 M213.487 58.612 C 220.788 61.804,218.036 78.062,209.418 82.648 C 203.336 85.885,197.967 82.566,197.719 75.416 C 197.343 64.575,206.008 55.341,213.487 58.612 M87.113 142.434 C 86.926 143.249,86.630 144.582,86.455 145.397 C 86.280 146.212,85.998 147.521,85.827 148.307 C 85.656 149.093,85.221 151.164,84.861 152.910 C 84.501 154.656,84.074 156.656,83.912 157.354 C 83.750 158.053,83.412 159.624,83.160 160.847 C 82.908 162.069,82.580 163.640,82.430 164.339 C 82.281 165.037,82.010 166.323,81.829 167.196 C 81.040 170.988,80.236 174.754,80.099 175.297 L 79.951 175.885 82.982 175.826 L 86.013 175.767 86.276 174.497 C 86.420 173.799,86.784 172.085,87.085 170.688 C 87.386 169.291,87.769 167.481,87.936 166.667 C 88.103 165.852,88.534 163.804,88.893 162.116 C 89.936 157.216,90.895 152.264,91.125 150.582 C 91.356 148.896,91.548 148.782,91.933 150.104 C 92.121 150.752,92.275 151.388,92.275 151.517 C 92.275 151.857,95.165 160.492,95.631 161.546 C 95.847 162.035,97.156 165.459,98.541 169.156 L 101.058 175.878 104.435 175.822 L 107.812 175.767 108.080 174.603 C 108.228 173.963,108.926 170.677,109.632 167.302 C 110.338 163.926,111.001 160.783,111.105 160.317 C 111.293 159.471,111.716 157.509,112.268 154.921 C 112.429 154.164,112.706 152.878,112.884 152.063 C 113.062 151.249,113.501 149.153,113.861 147.407 C 114.220 145.661,114.654 143.655,114.823 142.949 C 115.346 140.780,115.556 140.932,112.129 140.999 L 109.125 141.058 108.858 142.434 C 108.711 143.190,108.305 145.143,107.955 146.772 C 106.257 154.685,105.037 161.033,104.320 165.686 L 104.080 167.246 103.357 164.423 C 102.542 161.238,101.410 157.791,99.977 154.128 C 97.984 149.032,97.571 147.971,96.412 144.974 C 95.759 143.286,95.135 141.690,95.025 141.429 C 94.827 140.961,94.760 140.952,91.138 140.952 L 87.453 140.952 87.113 142.434 M152.595 142.063 C 152.349 143.181,151.603 146.664,150.478 151.958 C 150.144 153.529,149.576 156.196,149.216 157.884 C 148.856 159.571,148.424 161.619,148.257 162.434 C 148.090 163.249,147.660 165.296,147.300 166.984 C 146.292 171.724,146.267 171.839,145.844 173.826 C 145.559 175.165,145.514 175.720,145.686 175.785 C 145.818 175.836,150.583 175.853,156.275 175.822 L 166.625 175.767 167.001 174.180 C 167.208 173.307,167.440 172.140,167.518 171.587 L 167.659 170.582 160.443 170.582 L 153.228 170.582 153.228 170.043 C 153.228 169.747,153.365 168.914,153.533 168.192 C 153.932 166.480,154.398 164.339,154.844 162.172 L 155.203 160.429 161.764 160.373 L 168.325 160.317 168.477 159.788 C 168.833 158.549,169.312 156.194,169.312 155.684 L 169.312 155.132 162.829 155.132 L 156.347 155.132 156.476 154.444 C 156.616 153.704,157.100 151.421,157.586 149.206 C 157.752 148.450,157.947 147.475,158.019 147.040 L 158.150 146.249 165.155 146.193 L 172.159 146.138 172.635 144.021 C 172.896 142.857,173.113 141.690,173.116 141.429 L 173.122 140.952 162.981 140.952 L 152.839 140.952 152.595 142.063 M210.487 141.217 C 210.442 141.362,210.360 141.720,210.305 142.011 C 210.250 142.302,210.052 143.302,209.864 144.233 C 209.677 145.164,209.524 145.996,209.524 146.081 C 209.524 146.166,211.690 146.261,214.339 146.292 L 219.153 146.349 219.096 147.090 C 219.064 147.497,218.700 149.402,218.287 151.323 C 217.533 154.831,216.570 159.375,215.956 162.328 C 215.774 163.201,215.502 164.487,215.351 165.185 C 215.200 165.884,214.926 167.169,214.742 168.042 C 214.559 168.915,214.119 171.002,213.765 172.680 C 213.411 174.358,213.122 175.763,213.122 175.802 C 213.122 175.841,214.576 175.873,216.354 175.873 L 219.587 175.873 219.978 174.021 C 220.193 173.003,220.499 171.598,220.656 170.899 C 220.814 170.201,221.523 166.868,222.232 163.492 C 223.430 157.783,223.876 155.677,224.341 153.545 C 224.442 153.079,224.684 151.937,224.879 151.005 C 225.073 150.074,225.388 148.646,225.579 147.831 L 225.926 146.349 230.949 146.292 C 235.957 146.236,235.973 146.234,236.066 145.763 C 236.117 145.504,236.302 144.624,236.478 143.810 C 236.654 142.995,236.859 142.019,236.934 141.640 L 237.071 140.952 223.820 140.952 C 213.404 140.952,210.551 141.009,210.487 141.217 " stroke="none" fill="#2f6f8b" fill-rule="evenodd"></path><path id="path1" d="M375.450 22.852 C 375.275 22.968,374.870 23.064,374.550 23.066 C 374.230 23.067,373.968 23.158,373.968 23.267 C 373.968 23.377,373.540 23.530,373.016 23.609 C 372.492 23.687,372.063 23.829,372.063 23.923 C 372.063 24.016,371.778 24.156,371.429 24.233 C 371.079 24.310,370.794 24.449,370.794 24.542 C 370.794 24.636,370.627 24.774,370.423 24.848 C 369.703 25.112,368.889 25.634,368.889 25.832 C 368.889 25.942,368.751 26.032,368.581 26.032 C 368.282 26.032,365.291 28.919,365.291 29.208 C 365.291 29.288,365.101 29.573,364.868 29.841 C 364.635 30.110,364.444 30.458,364.444 30.614 C 364.444 30.771,364.357 30.899,364.250 30.899 C 364.142 30.899,363.992 31.185,363.915 31.534 C 363.839 31.884,363.711 32.169,363.631 32.169 C 363.427 32.169,362.751 33.782,362.751 34.270 C 362.751 34.492,362.632 34.713,362.487 34.762 C 362.126 34.882,362.110 42.877,362.469 43.618 C 362.604 43.898,362.885 44.627,363.093 45.238 C 363.300 45.849,363.539 46.349,363.623 46.349 C 363.707 46.349,363.839 46.635,363.915 46.984 C 363.992 47.333,364.142 47.619,364.250 47.619 C 364.357 47.619,364.444 47.765,364.444 47.943 C 364.444 48.121,364.587 48.322,364.762 48.389 C 364.937 48.456,365.079 48.624,365.079 48.763 C 365.079 49.119,365.663 49.877,366.799 50.994 C 368.418 52.588,368.993 53.059,369.526 53.228 C 369.805 53.317,370.163 53.519,370.323 53.679 C 370.482 53.838,370.748 53.968,370.915 53.968 C 371.081 53.968,371.217 54.059,371.217 54.170 C 371.217 54.281,371.550 54.435,371.958 54.511 C 372.365 54.588,372.698 54.726,372.698 54.819 C 372.698 54.911,373.198 55.055,373.810 55.138 C 374.421 55.221,374.989 55.397,375.072 55.528 C 375.279 55.856,383.022 55.863,383.235 55.535 C 383.318 55.408,383.862 55.240,384.444 55.162 C 385.026 55.084,385.534 54.927,385.573 54.812 C 385.612 54.697,386.017 54.543,386.473 54.470 C 386.929 54.397,387.302 54.254,387.302 54.153 C 387.302 54.051,387.447 53.968,387.626 53.968 C 387.804 53.968,388.001 53.834,388.064 53.670 C 388.127 53.506,388.410 53.314,388.693 53.243 C 388.975 53.172,389.206 53.020,389.206 52.906 C 389.206 52.792,389.317 52.698,389.453 52.698 C 389.731 52.698,389.846 52.599,391.693 50.756 C 392.421 50.030,393.016 49.313,393.016 49.163 C 393.016 49.012,393.109 48.889,393.223 48.889 C 393.338 48.889,393.489 48.658,393.560 48.375 C 393.631 48.093,393.823 47.810,393.987 47.747 C 394.151 47.684,394.286 47.486,394.286 47.308 C 394.286 47.130,394.369 46.984,394.470 46.984 C 394.572 46.984,394.715 46.611,394.787 46.155 C 394.860 45.699,395.014 45.295,395.129 45.256 C 395.244 45.217,395.402 44.709,395.479 44.127 C 395.557 43.545,395.724 43.002,395.849 42.920 C 396.163 42.716,396.149 35.581,395.835 35.382 C 395.709 35.303,395.539 34.738,395.455 34.127 C 395.372 33.516,395.225 33.016,395.129 33.016 C 395.033 33.016,394.892 32.730,394.815 32.381 C 394.738 32.032,394.595 31.746,394.497 31.746 C 394.399 31.746,394.257 31.460,394.180 31.111 C 394.103 30.762,393.953 30.476,393.846 30.476 C 393.738 30.476,393.651 30.348,393.651 30.192 C 393.651 30.035,393.460 29.734,393.228 29.524 C 392.995 29.313,392.804 29.049,392.804 28.937 C 392.804 28.622,390.087 26.032,389.756 26.032 C 389.595 26.032,389.408 25.889,389.341 25.714 C 389.274 25.540,389.074 25.397,388.896 25.397 C 388.717 25.397,388.571 25.303,388.571 25.189 C 388.571 25.075,388.333 24.922,388.042 24.849 C 387.751 24.776,387.513 24.639,387.513 24.544 C 387.513 24.450,387.228 24.310,386.878 24.233 C 386.529 24.156,386.243 24.012,386.243 23.911 C 386.243 23.811,385.815 23.665,385.291 23.587 C 384.767 23.508,384.339 23.370,384.339 23.280 C 384.339 22.826,376.088 22.429,375.450 22.852 M382.688 27.031 C 382.839 27.153,383.272 27.319,383.651 27.400 C 384.029 27.481,384.339 27.624,384.339 27.719 C 384.339 27.813,384.577 27.950,384.868 28.023 C 385.159 28.096,385.397 28.250,385.397 28.364 C 385.397 28.478,385.543 28.571,385.721 28.571 C 385.899 28.571,386.100 28.714,386.167 28.889 C 386.234 29.063,386.417 29.206,386.573 29.206 C 386.880 29.206,388.146 30.463,388.147 30.769 C 388.148 30.872,388.362 31.164,388.624 31.418 C 389.183 31.959,389.592 32.551,389.766 33.069 C 389.835 33.272,389.964 33.439,390.054 33.439 C 390.144 33.439,390.280 33.772,390.356 34.180 C 390.433 34.587,390.579 34.921,390.681 34.921 C 390.782 34.921,390.925 35.563,390.998 36.349 C 391.071 37.135,391.222 37.943,391.333 38.145 C 391.584 38.602,391.599 40.212,391.353 40.212 C 391.253 40.212,391.108 40.898,391.030 41.737 C 390.952 42.576,390.809 43.314,390.713 43.377 C 390.616 43.440,390.472 43.849,390.391 44.286 C 390.311 44.722,390.154 45.079,390.043 45.079 C 389.932 45.079,389.841 45.222,389.841 45.397 C 389.841 45.571,389.746 45.714,389.630 45.714 C 389.513 45.714,389.418 45.813,389.418 45.934 C 389.418 46.447,386.688 49.524,386.233 49.524 C 386.122 49.524,386.032 49.617,386.032 49.731 C 386.032 49.846,385.794 49.999,385.503 50.072 C 385.212 50.145,384.974 50.279,384.974 50.370 C 384.974 50.462,384.713 50.602,384.394 50.682 C 384.075 50.762,383.755 50.922,383.683 51.038 C 383.612 51.154,383.158 51.302,382.676 51.367 C 382.194 51.431,381.799 51.567,381.799 51.668 C 381.799 51.769,380.704 51.852,379.365 51.852 C 378.026 51.852,376.931 51.768,376.931 51.665 C 376.931 51.562,376.407 51.412,375.767 51.332 C 375.127 51.252,374.603 51.106,374.603 51.007 C 374.603 50.908,374.317 50.765,373.968 50.688 C 373.619 50.611,373.333 50.461,373.333 50.354 C 373.333 50.246,373.187 50.159,373.009 50.159 C 372.831 50.159,372.630 50.016,372.563 49.841 C 372.496 49.667,372.333 49.522,372.200 49.519 C 371.823 49.512,369.156 46.856,368.985 46.319 C 368.901 46.055,368.703 45.710,368.544 45.550 C 368.384 45.391,368.254 45.125,368.254 44.958 C 368.254 44.792,368.167 44.656,368.061 44.656 C 367.955 44.656,367.800 44.251,367.718 43.757 C 367.635 43.262,367.460 42.789,367.329 42.706 C 366.997 42.496,366.997 35.811,367.328 35.601 C 367.459 35.518,367.633 35.140,367.715 34.762 C 367.797 34.384,367.952 34.074,368.059 34.074 C 368.166 34.074,368.254 33.833,368.254 33.538 C 368.254 33.244,368.388 32.951,368.552 32.888 C 368.716 32.825,368.909 32.542,368.980 32.260 C 369.051 31.977,369.202 31.746,369.316 31.746 C 369.430 31.746,369.524 31.635,369.524 31.499 C 369.524 31.188,371.951 28.783,372.266 28.783 C 372.395 28.783,372.553 28.646,372.617 28.479 C 372.681 28.311,373.012 28.113,373.351 28.038 C 373.690 27.964,373.968 27.816,373.968 27.711 C 373.968 27.605,374.349 27.457,374.815 27.383 C 375.280 27.308,375.661 27.170,375.661 27.076 C 375.661 26.654,382.168 26.612,382.688 27.031 M375.979 30.688 C 375.907 30.804,375.389 30.899,374.829 30.899 C 374.268 30.899,373.512 30.959,373.148 31.032 L 372.487 31.164 372.487 39.497 L 372.487 47.831 374.709 47.831 L 376.931 47.831 376.931 44.628 L 376.931 41.425 378.400 41.530 C 380.190 41.658,381.128 42.391,381.318 43.814 C 381.381 44.277,381.503 44.656,381.591 44.656 C 381.678 44.656,381.816 45.180,381.896 45.820 C 381.976 46.460,382.129 46.984,382.237 46.984 C 382.345 46.984,382.434 47.175,382.434 47.407 C 382.434 47.807,382.575 47.831,384.974 47.831 C 387.663 47.831,387.866 47.743,387.203 46.866 C 387.032 46.640,386.829 46.003,386.752 45.450 C 386.675 44.897,386.542 44.444,386.457 44.444 C 386.372 44.444,386.250 43.944,386.185 43.333 C 386.047 42.026,385.732 41.361,384.817 40.446 C 384.159 39.788,384.084 39.153,384.662 39.153 C 385.082 39.153,386.243 37.907,386.243 37.457 C 386.243 37.240,386.339 37.003,386.455 36.931 C 386.571 36.859,386.667 36.187,386.667 35.437 C 386.667 34.670,386.574 34.074,386.455 34.074 C 386.339 34.074,386.243 33.833,386.243 33.538 C 386.243 33.244,386.110 32.951,385.947 32.889 C 385.784 32.826,385.603 32.593,385.545 32.371 C 385.487 32.149,385.168 31.848,384.836 31.703 C 384.504 31.557,384.178 31.361,384.111 31.269 C 384.044 31.176,383.496 31.042,382.894 30.970 C 382.292 30.899,381.799 30.759,381.799 30.658 C 381.799 30.399,376.140 30.427,375.979 30.688 M380.656 34.416 C 381.052 34.604,381.376 34.889,381.376 35.051 C 381.376 35.212,381.471 35.344,381.587 35.344 C 382.662 35.344,381.378 37.629,380.196 37.821 C 379.797 37.886,379.471 38.022,379.471 38.123 C 379.471 38.224,378.899 38.307,378.201 38.307 L 376.931 38.307 376.931 36.190 L 376.931 34.074 378.434 34.074 C 379.378 34.074,380.203 34.201,380.656 34.416 M70.529 44.595 C 70.151 44.644,69.841 44.760,69.841 44.854 C 69.841 44.948,69.460 45.086,68.995 45.161 C 68.529 45.235,68.148 45.383,68.148 45.488 C 68.148 45.594,67.862 45.743,67.513 45.820 C 67.164 45.897,66.878 46.047,66.878 46.154 C 66.878 46.262,66.770 46.349,66.638 46.349 C 66.134 46.349,63.921 48.835,63.577 49.788 C 63.503 49.992,63.359 50.159,63.256 50.159 C 63.153 50.159,63.069 50.397,63.069 50.688 C 63.069 50.979,62.977 51.217,62.864 51.217 C 62.752 51.217,62.597 51.693,62.520 52.275 C 62.442 52.857,62.306 53.333,62.216 53.333 C 62.127 53.333,61.987 54.000,61.905 54.815 C 61.823 55.630,61.683 56.296,61.593 56.296 C 61.504 56.296,61.365 56.963,61.284 57.778 C 61.204 58.593,61.057 59.259,60.958 59.259 C 60.858 59.259,60.710 59.974,60.628 60.847 C 60.546 61.720,60.408 62.434,60.320 62.434 C 60.232 62.434,60.095 63.101,60.015 63.915 C 59.934 64.730,59.787 65.397,59.688 65.397 C 59.588 65.397,59.440 66.111,59.358 66.984 C 59.276 67.857,59.131 68.571,59.036 68.571 C 58.940 68.571,58.796 69.238,58.716 70.053 C 58.635 70.868,58.498 71.534,58.410 71.534 C 58.322 71.534,58.184 72.152,58.103 72.908 C 58.022 73.663,57.877 74.331,57.779 74.391 C 57.682 74.451,57.535 75.214,57.453 76.086 C 57.372 76.958,57.221 77.672,57.118 77.672 C 57.015 77.672,56.927 77.981,56.922 78.360 C 56.917 78.738,56.775 79.429,56.608 79.894 C 56.440 80.360,56.301 81.050,56.299 81.429 C 56.298 81.807,56.213 82.116,56.112 82.116 C 56.011 82.116,55.862 82.783,55.782 83.598 C 55.701 84.413,55.554 85.079,55.455 85.079 C 55.356 85.079,55.207 85.794,55.125 86.667 C 55.044 87.540,54.893 88.254,54.790 88.254 C 54.687 88.254,54.603 89.111,54.603 90.159 C 54.603 91.206,54.685 92.063,54.786 92.063 C 54.887 92.063,55.028 92.497,55.101 93.027 C 55.336 94.744,57.417 96.931,58.816 96.931 C 59.060 96.931,59.259 97.026,59.259 97.143 C 59.259 97.280,61.975 97.354,66.984 97.354 L 74.709 97.354 74.709 97.989 C 74.709 98.339,74.625 98.624,74.522 98.624 C 74.419 98.624,74.269 99.242,74.188 99.998 C 74.107 100.753,73.961 101.420,73.864 101.481 C 73.766 101.541,73.620 102.304,73.538 103.176 C 73.456 104.048,73.305 104.762,73.203 104.762 C 73.100 104.762,73.016 104.952,73.016 105.185 C 73.016 105.606,72.875 105.608,46.772 105.608 L 20.529 105.608 20.529 106.138 C 20.529 106.429,20.440 106.667,20.330 106.667 C 20.221 106.667,20.066 107.333,19.985 108.148 C 19.905 108.963,19.768 109.630,19.680 109.630 C 19.592 109.630,19.454 110.249,19.373 111.005 C 19.292 111.762,19.148 112.381,19.053 112.381 C 18.958 112.381,18.813 113.143,18.730 114.074 C 18.648 115.005,18.506 115.767,18.415 115.767 C 18.325 115.767,18.184 116.386,18.103 117.143 C 18.022 117.899,17.879 118.519,17.786 118.519 C 17.692 118.519,17.549 119.233,17.467 120.106 C 17.385 120.979,17.231 121.693,17.125 121.693 C 17.018 121.693,16.931 122.169,16.931 122.751 L 16.931 123.810 27.721 123.810 L 38.510 123.810 38.376 124.815 C 38.302 125.368,38.174 125.868,38.091 125.926 C 38.008 125.984,37.872 126.675,37.789 127.460 C 37.706 128.246,37.563 128.889,37.471 128.889 C 37.379 128.889,37.238 129.549,37.159 130.357 L 37.014 131.824 28.975 131.891 C 23.320 131.938,20.892 132.028,20.786 132.196 C 20.703 132.327,20.324 132.501,19.945 132.583 C 19.055 132.776,17.989 133.309,17.989 133.560 C 17.989 133.668,17.864 133.757,17.710 133.757 C 17.556 133.757,17.111 134.042,16.720 134.392 C 16.328 134.741,15.930 135.026,15.835 135.026 C 15.739 135.026,15.661 135.135,15.661 135.267 C 15.661 135.399,15.434 135.717,15.157 135.974 C 14.880 136.232,14.587 136.647,14.508 136.898 C 14.428 137.149,14.285 137.354,14.189 137.354 C 14.094 137.354,13.953 137.688,13.876 138.095 C 13.800 138.503,13.653 138.836,13.551 138.836 C 13.448 138.836,13.298 139.384,13.217 140.053 C 13.136 140.722,12.997 141.365,12.908 141.481 C 12.818 141.598,12.678 142.288,12.595 143.016 C 12.513 143.743,12.371 144.339,12.279 144.339 C 12.188 144.339,12.046 145.053,11.964 145.926 C 11.883 146.799,11.738 147.513,11.644 147.513 C 11.549 147.513,11.405 148.180,11.323 148.995 C 11.241 149.810,11.101 150.476,11.011 150.476 C 10.922 150.476,10.783 151.143,10.702 151.958 C 10.622 152.772,10.467 153.439,10.358 153.439 C 10.248 153.439,10.159 153.779,10.159 154.194 C 10.159 154.609,10.062 155.128,9.945 155.348 C 9.827 155.568,9.671 156.324,9.597 157.027 C 9.524 157.731,9.391 158.307,9.303 158.307 C 9.214 158.307,9.075 158.902,8.992 159.630 C 8.909 160.357,8.768 161.048,8.677 161.164 C 8.587 161.280,8.445 161.971,8.363 162.699 C 8.280 163.427,8.136 164.069,8.043 164.127 C 7.950 164.184,7.807 164.899,7.725 165.714 C 7.643 166.530,7.498 167.246,7.402 167.305 C 7.307 167.364,7.163 168.030,7.082 168.785 C 7.001 169.541,6.863 170.159,6.775 170.159 C 6.687 170.159,6.548 170.849,6.464 171.692 C 6.381 172.535,6.202 173.293,6.067 173.377 C 5.729 173.586,5.718 181.113,6.056 181.330 C 6.186 181.413,6.359 181.696,6.441 181.958 C 6.522 182.220,6.678 182.434,6.787 182.434 C 6.895 182.434,6.984 182.581,6.984 182.761 C 6.984 182.941,7.269 183.251,7.618 183.449 C 7.966 183.647,8.252 183.877,8.253 183.959 C 8.253 184.041,8.611 184.173,9.048 184.254 C 9.484 184.334,9.909 184.505,9.992 184.634 C 10.210 184.971,50.535 184.966,50.748 184.629 C 50.832 184.498,51.304 184.323,51.799 184.240 C 52.294 184.157,52.698 184.013,52.698 183.920 C 52.698 183.826,52.945 183.688,53.246 183.612 C 53.905 183.447,54.100 183.300,55.691 181.769 C 56.373 181.113,56.931 180.470,56.931 180.341 C 56.931 180.212,57.017 180.106,57.121 180.106 C 57.383 180.106,58.201 178.496,58.201 177.983 C 58.201 177.754,58.292 177.566,58.402 177.566 C 58.513 177.566,58.668 176.995,58.747 176.296 C 58.826 175.598,58.961 175.026,59.048 175.026 C 59.134 175.026,59.270 174.360,59.351 173.545 C 59.431 172.730,59.578 172.063,59.677 172.063 C 59.777 172.063,59.925 171.349,60.007 170.476 C 60.089 169.603,60.234 168.889,60.330 168.889 C 60.425 168.889,60.569 168.222,60.649 167.407 C 60.730 166.593,60.870 165.926,60.962 165.926 C 61.053 165.926,61.195 165.212,61.277 164.339 C 61.358 163.466,61.504 162.751,61.599 162.751 C 61.695 162.751,61.839 162.085,61.919 161.270 C 62.000 160.455,62.136 159.788,62.222 159.788 C 62.309 159.788,62.445 159.206,62.526 158.494 C 62.606 157.783,62.751 157.045,62.847 156.854 C 63.027 156.497,63.428 154.611,63.640 153.122 C 63.707 152.656,63.843 152.170,63.944 152.042 C 64.045 151.914,64.188 151.223,64.263 150.507 C 64.338 149.792,64.468 149.206,64.553 149.206 C 64.638 149.206,64.773 148.540,64.853 147.725 C 64.933 146.910,65.079 146.243,65.177 146.243 C 65.274 146.243,65.423 145.553,65.507 144.709 C 65.590 143.865,65.767 143.107,65.898 143.024 C 66.255 142.799,66.231 135.623,65.873 135.503 C 65.728 135.454,65.608 135.237,65.608 135.019 C 65.608 134.802,65.489 134.548,65.344 134.455 C 65.198 134.362,64.978 134.102,64.854 133.877 C 64.729 133.652,64.448 133.366,64.228 133.242 C 64.007 133.117,63.698 132.897,63.539 132.751 C 63.380 132.606,63.074 132.487,62.860 132.487 C 62.645 132.487,62.430 132.368,62.381 132.222 C 62.313 132.018,60.467 131.942,54.343 131.891 L 46.393 131.824 46.506 130.939 C 46.567 130.451,46.692 129.958,46.783 129.841 C 46.874 129.725,47.016 128.939,47.099 128.095 C 47.182 127.251,47.326 126.561,47.418 126.561 C 47.510 126.561,47.652 125.942,47.733 125.185 L 47.880 123.810 73.940 123.813 C 88.273 123.815,99.892 123.886,99.761 123.971 C 99.629 124.057,99.453 124.817,99.369 125.661 C 99.285 126.505,99.143 127.196,99.053 127.196 C 98.964 127.196,98.825 127.862,98.745 128.677 C 98.664 129.492,98.509 130.159,98.400 130.159 C 98.291 130.159,98.201 130.533,98.201 130.991 L 98.201 131.824 90.257 131.891 C 84.658 131.938,82.268 132.028,82.161 132.196 C 82.078 132.328,81.606 132.503,81.111 132.585 C 80.616 132.668,80.212 132.812,80.212 132.906 C 80.212 132.999,79.974 133.136,79.683 133.209 C 79.392 133.282,79.153 133.435,79.153 133.549 C 79.153 133.663,79.008 133.757,78.829 133.757 C 78.651 133.757,78.450 133.899,78.383 134.074 C 78.316 134.249,78.145 134.392,78.002 134.392 C 77.766 134.392,76.614 135.523,76.614 135.754 C 76.614 135.808,76.373 136.111,76.080 136.428 C 75.786 136.745,75.490 137.226,75.422 137.497 C 75.354 137.768,75.219 137.989,75.122 137.989 C 75.026 137.989,74.882 138.418,74.804 138.942 C 74.725 139.466,74.582 139.894,74.486 139.894 C 74.390 139.894,74.246 140.561,74.165 141.376 C 74.085 142.190,73.948 142.857,73.860 142.857 C 73.772 142.857,73.634 143.476,73.553 144.233 C 73.472 144.989,73.328 145.608,73.233 145.608 C 73.138 145.608,72.992 146.370,72.910 147.302 C 72.828 148.233,72.682 148.995,72.587 148.995 C 72.492 148.995,72.348 149.614,72.267 150.370 C 72.186 151.127,72.048 151.746,71.960 151.746 C 71.873 151.746,71.735 152.413,71.655 153.228 C 71.574 154.042,71.430 154.709,71.335 154.709 C 71.239 154.709,71.094 155.423,71.012 156.296 C 70.930 157.169,70.789 157.884,70.697 157.884 C 70.606 157.884,70.465 158.550,70.385 159.365 C 70.305 160.180,70.149 160.847,70.040 160.847 C 69.931 160.847,69.841 161.228,69.841 161.693 C 69.841 162.159,69.757 162.540,69.654 162.540 C 69.551 162.540,69.401 163.158,69.320 163.913 C 69.239 164.669,69.093 165.336,68.996 165.396 C 68.899 165.456,68.752 166.219,68.670 167.091 C 68.589 167.964,68.449 168.677,68.360 168.677 C 68.270 168.677,68.131 169.296,68.050 170.053 C 67.969 170.810,67.827 171.429,67.735 171.429 C 67.643 171.429,67.500 172.119,67.417 172.963 C 67.334 173.807,67.155 174.631,67.019 174.795 C 66.676 175.208,66.707 180.578,67.053 180.693 C 67.190 180.739,67.302 180.877,67.302 181.000 C 67.302 182.017,68.967 183.835,70.265 184.233 C 70.556 184.323,70.862 184.502,70.945 184.632 C 71.162 184.971,111.558 184.967,111.978 184.628 C 112.141 184.496,112.586 184.321,112.965 184.240 C 113.818 184.058,114.921 183.521,114.921 183.288 C 114.921 183.193,115.159 183.055,115.450 182.982 C 115.741 182.909,115.979 182.756,115.979 182.641 C 115.979 182.527,116.067 182.434,116.175 182.434 C 116.463 182.434,117.884 181.049,117.884 180.769 C 117.884 180.637,117.977 180.529,118.091 180.529 C 118.205 180.529,118.357 180.298,118.428 180.015 C 118.499 179.733,118.691 179.450,118.855 179.387 C 119.019 179.324,119.153 179.039,119.153 178.754 C 119.153 178.469,119.255 178.203,119.379 178.161 C 119.503 178.120,119.658 177.683,119.724 177.191 C 119.790 176.699,119.914 176.296,120.001 176.296 C 120.087 176.296,120.223 175.630,120.303 174.815 C 120.383 174.000,120.530 173.333,120.630 173.333 C 120.729 173.333,120.877 172.619,120.959 171.746 C 121.041 170.873,121.186 170.159,121.282 170.159 C 121.378 170.159,121.522 169.492,121.602 168.677 C 121.682 167.862,121.823 167.196,121.914 167.196 C 122.005 167.196,122.147 166.481,122.229 165.608 C 122.311 164.735,122.456 164.021,122.552 164.021 C 122.647 164.021,122.791 163.354,122.872 162.540 C 122.952 161.725,123.101 161.058,123.202 161.058 C 123.303 161.058,123.386 160.744,123.386 160.360 C 123.386 159.976,123.481 159.567,123.597 159.451 C 123.712 159.335,123.869 158.650,123.944 157.927 C 124.020 157.205,124.151 156.614,124.236 156.614 C 124.320 156.614,124.455 155.947,124.536 155.132 C 124.616 154.317,124.763 153.651,124.862 153.651 C 124.962 153.651,125.110 152.937,125.192 152.063 C 125.274 151.190,125.412 150.476,125.500 150.476 C 125.588 150.476,125.725 149.810,125.806 148.995 C 125.886 148.180,126.033 147.513,126.132 147.513 C 126.232 147.513,126.380 146.799,126.462 145.926 C 126.544 145.053,126.689 144.339,126.785 144.339 C 126.880 144.339,127.024 143.672,127.104 142.857 C 127.185 142.042,127.333 141.376,127.435 141.376 C 127.536 141.376,127.619 140.328,127.619 139.048 C 127.619 137.767,127.535 136.720,127.431 136.720 C 127.328 136.720,127.183 136.311,127.108 135.811 C 127.029 135.286,126.751 134.665,126.449 134.339 C 126.161 134.029,125.926 133.676,125.926 133.554 C 125.926 133.433,125.780 133.333,125.602 133.333 C 125.424 133.333,125.223 133.190,125.156 133.016 C 125.089 132.841,124.925 132.698,124.792 132.697 C 124.659 132.696,124.265 132.531,123.915 132.330 C 123.352 132.006,122.396 131.957,115.397 131.895 C 108.723 131.835,107.513 131.777,107.513 131.521 C 107.513 131.354,107.599 131.217,107.703 131.217 C 107.807 131.217,107.960 130.455,108.042 129.524 C 108.125 128.593,108.270 127.831,108.365 127.831 C 108.460 127.831,108.604 127.212,108.685 126.455 C 108.766 125.698,108.917 125.079,109.019 125.079 C 109.122 125.079,109.206 124.794,109.206 124.444 L 109.206 123.810 135.096 123.810 L 160.985 123.810 160.889 124.497 C 160.836 124.876,160.721 125.280,160.632 125.397 C 160.543 125.513,160.402 126.228,160.317 126.984 C 160.233 127.741,160.092 128.455,160.003 128.571 C 159.913 128.688,159.772 129.346,159.689 130.035 C 159.460 131.928,160.023 131.806,151.109 131.887 C 145.029 131.941,143.189 132.019,143.122 132.222 C 143.073 132.368,142.892 132.487,142.720 132.487 C 142.233 132.487,140.264 133.453,139.744 133.947 C 139.487 134.192,139.213 134.392,139.134 134.392 C 138.932 134.392,137.566 135.866,137.566 136.085 C 137.566 136.184,137.446 136.392,137.300 136.546 C 137.154 136.700,136.844 137.229,136.612 137.722 C 136.380 138.216,136.125 138.621,136.045 138.622 C 135.965 138.623,135.833 139.077,135.753 139.630 C 135.673 140.183,135.533 140.730,135.441 140.847 C 135.349 140.963,135.206 141.749,135.123 142.593 C 135.040 143.437,134.900 144.127,134.812 144.127 C 134.724 144.127,134.586 144.745,134.505 145.500 C 134.425 146.256,134.279 146.923,134.181 146.983 C 134.084 147.044,133.937 147.806,133.855 148.679 C 133.774 149.551,133.630 150.265,133.537 150.265 C 133.443 150.265,133.301 150.884,133.220 151.640 C 133.139 152.397,133.001 153.016,132.913 153.016 C 132.825 153.016,132.687 153.683,132.607 154.497 C 132.527 155.312,132.383 155.979,132.287 155.979 C 132.192 155.979,132.046 156.693,131.964 157.566 C 131.883 158.439,131.741 159.153,131.650 159.153 C 131.558 159.153,131.418 159.820,131.337 160.635 C 131.257 161.450,131.113 162.116,131.017 162.116 C 130.922 162.116,130.776 162.831,130.695 163.704 C 130.613 164.577,130.459 165.291,130.352 165.291 C 130.246 165.291,130.159 165.477,130.159 165.704 C 130.159 165.931,130.016 166.665,129.841 167.336 C 129.667 168.006,129.524 168.868,129.524 169.251 C 129.524 169.634,129.440 169.947,129.337 169.947 C 129.234 169.947,129.084 170.565,129.003 171.321 C 128.922 172.076,128.776 172.743,128.679 172.803 C 128.581 172.864,128.435 173.627,128.353 174.499 C 128.271 175.371,128.120 176.085,128.017 176.085 C 127.915 176.085,127.831 176.847,127.831 177.778 C 127.831 178.709,127.913 179.471,128.014 179.471 C 128.116 179.471,128.251 179.866,128.316 180.348 C 128.381 180.830,128.523 181.283,128.633 181.353 C 128.742 181.424,128.892 181.672,128.965 181.905 C 129.146 182.478,130.216 183.704,130.535 183.704 C 130.677 183.704,130.794 183.789,130.794 183.892 C 130.794 183.996,131.055 184.147,131.374 184.227 C 131.692 184.307,132.022 184.484,132.107 184.620 C 132.320 184.965,173.065 184.979,173.288 184.634 C 173.371 184.505,173.796 184.334,174.233 184.254 C 174.669 184.173,175.026 184.017,175.026 183.906 C 175.026 183.795,175.210 183.704,175.435 183.704 C 175.659 183.704,175.970 183.576,176.126 183.420 C 176.282 183.264,176.523 183.098,176.661 183.050 C 177.241 182.850,179.234 181.021,179.352 180.582 C 179.422 180.320,179.565 180.106,179.670 180.106 C 179.775 180.106,179.923 179.820,180.000 179.471 C 180.077 179.122,180.223 178.836,180.325 178.836 C 180.427 178.836,180.572 178.503,180.649 178.095 C 180.725 177.688,180.865 177.354,180.959 177.354 C 181.053 177.354,181.197 176.735,181.278 175.979 C 181.359 175.222,181.501 174.603,181.594 174.603 C 181.687 174.603,181.830 173.889,181.912 173.016 C 181.993 172.143,182.139 171.429,182.234 171.429 C 182.330 171.429,182.474 170.762,182.554 169.947 C 182.635 169.132,182.783 168.466,182.884 168.466 C 182.986 168.466,183.068 168.251,183.066 167.989 C 183.063 167.390,183.689 164.451,183.916 164.004 C 184.009 163.820,184.154 163.035,184.237 162.258 C 184.320 161.482,184.466 160.847,184.562 160.847 C 184.658 160.847,184.802 160.180,184.882 159.365 C 184.963 158.550,185.102 157.884,185.191 157.884 C 185.281 157.884,185.421 157.217,185.503 156.402 C 185.584 155.587,185.729 154.921,185.824 154.921 C 185.918 154.921,186.063 154.206,186.144 153.333 C 186.226 152.460,186.367 151.746,186.458 151.746 C 186.549 151.746,186.691 151.079,186.772 150.265 C 186.854 149.450,186.999 148.783,187.093 148.783 C 187.188 148.783,187.332 148.069,187.414 147.196 C 187.496 146.323,187.638 145.608,187.729 145.608 C 187.820 145.608,187.963 145.013,188.045 144.286 C 188.128 143.558,188.304 142.829,188.436 142.666 C 188.765 142.261,188.770 135.917,188.441 135.707 C 188.311 135.624,188.132 135.321,188.042 135.034 C 187.832 134.360,186.275 132.803,185.601 132.593 C 185.314 132.503,185.011 132.324,184.929 132.194 C 184.823 132.029,182.375 131.937,176.820 131.891 L 168.862 131.824 169.007 130.621 C 169.087 129.959,169.229 129.322,169.322 129.204 C 169.415 129.087,169.559 128.396,169.641 127.670 C 169.723 126.944,169.873 126.349,169.974 126.349 C 170.076 126.349,170.159 125.968,170.159 125.503 C 170.159 125.037,170.254 124.656,170.370 124.656 C 170.487 124.656,170.582 124.466,170.582 124.233 C 170.582 123.812,170.723 123.810,196.318 123.810 L 222.054 123.810 221.902 125.344 C 221.819 126.188,221.671 126.908,221.574 126.945 C 221.478 126.982,221.333 127.672,221.254 128.479 C 221.174 129.287,221.026 129.947,220.925 129.947 C 220.824 129.947,220.739 130.257,220.737 130.635 C 220.732 131.860,221.035 131.814,212.529 131.888 C 207.069 131.936,204.594 132.030,204.489 132.192 C 204.407 132.320,203.981 132.491,203.545 132.572 C 203.108 132.652,202.751 132.798,202.751 132.897 C 202.751 132.995,202.505 133.138,202.204 133.213 C 201.585 133.369,201.418 133.489,199.978 134.815 C 199.409 135.339,198.944 135.886,198.943 136.032 C 198.942 136.177,198.848 136.296,198.734 136.296 C 198.620 136.296,198.467 136.534,198.394 136.825 C 198.321 137.116,198.184 137.354,198.089 137.354 C 197.995 137.354,197.854 137.640,197.778 137.989 C 197.701 138.339,197.554 138.624,197.451 138.624 C 197.348 138.624,197.200 139.101,197.123 139.683 C 197.046 140.265,196.900 140.741,196.798 140.741 C 196.697 140.741,196.614 141.068,196.614 141.469 C 196.614 141.870,196.524 142.253,196.414 142.320 C 196.305 142.388,196.150 143.108,196.070 143.920 C 195.990 144.732,195.851 145.397,195.761 145.397 C 195.672 145.397,195.532 146.063,195.450 146.878 C 195.368 147.693,195.224 148.360,195.129 148.360 C 195.034 148.360,194.890 149.074,194.808 149.947 C 194.726 150.820,194.583 151.534,194.489 151.534 C 194.396 151.534,194.253 152.155,194.172 152.913 C 194.091 153.671,193.948 154.339,193.855 154.396 C 193.763 154.453,193.620 155.214,193.538 156.086 C 193.456 156.958,193.313 157.672,193.219 157.672 C 193.126 157.672,192.983 158.291,192.902 159.048 C 192.821 159.804,192.683 160.423,192.595 160.423 C 192.507 160.423,192.370 161.090,192.290 161.905 C 192.209 162.720,192.065 163.386,191.970 163.386 C 191.874 163.386,191.729 164.101,191.647 164.974 C 191.565 165.847,191.421 166.561,191.326 166.561 C 191.232 166.561,191.087 167.228,191.005 168.042 C 190.923 168.857,190.782 169.524,190.691 169.524 C 190.600 169.524,190.459 170.238,190.377 171.111 C 190.295 171.984,190.152 172.698,190.058 172.698 C 189.964 172.698,189.836 173.008,189.774 173.386 C 189.711 173.765,189.548 174.598,189.412 175.238 C 189.102 176.699,189.225 180.571,189.586 180.691 C 189.726 180.738,189.841 181.006,189.841 181.287 C 189.841 181.569,189.937 181.799,190.053 181.799 C 190.169 181.799,190.265 181.934,190.265 182.100 C 190.265 182.479,191.472 183.704,191.845 183.704 C 191.999 183.704,192.179 183.847,192.246 184.021 C 192.313 184.196,192.601 184.339,192.886 184.339 C 193.171 184.339,193.444 184.458,193.492 184.603 C 193.614 184.967,234.433 184.994,234.664 184.630 C 234.747 184.499,235.124 184.325,235.503 184.243 C 235.881 184.161,236.190 184.006,236.190 183.899 C 236.190 183.791,236.295 183.704,236.423 183.704 C 236.789 183.704,238.166 183.028,238.547 182.661 C 238.737 182.478,239.189 182.091,239.552 181.801 C 239.915 181.512,240.212 181.176,240.212 181.055 C 240.212 180.934,240.402 180.672,240.635 180.472 C 240.868 180.273,241.058 179.966,241.058 179.790 C 241.058 179.615,241.146 179.471,241.253 179.471 C 241.360 179.471,241.511 179.185,241.587 178.836 C 241.664 178.487,241.809 178.201,241.909 178.201 C 242.009 178.201,242.156 177.749,242.236 177.196 C 242.316 176.643,242.457 176.095,242.548 175.979 C 242.640 175.862,242.783 175.077,242.866 174.233 C 242.950 173.389,243.101 172.698,243.202 172.698 C 243.303 172.698,243.386 172.454,243.386 172.155 C 243.386 171.857,243.482 171.433,243.600 171.213 C 243.718 170.993,243.874 170.237,243.948 169.534 C 244.021 168.830,244.151 168.254,244.236 168.254 C 244.320 168.254,244.455 167.587,244.536 166.772 C 244.616 165.958,244.763 165.291,244.862 165.291 C 244.962 165.291,245.110 164.577,245.192 163.704 C 245.274 162.831,245.419 162.116,245.515 162.116 C 245.610 162.116,245.754 161.450,245.835 160.635 C 245.915 159.820,246.052 159.153,246.140 159.153 C 246.228 159.153,246.366 158.535,246.447 157.780 C 246.528 157.025,246.674 156.357,246.771 156.297 C 246.869 156.237,247.015 155.474,247.097 154.602 C 247.179 153.730,247.318 153.016,247.408 153.016 C 247.497 153.016,247.636 152.398,247.717 151.642 C 247.798 150.887,247.944 150.220,248.041 150.160 C 248.138 150.099,248.285 149.336,248.367 148.464 C 248.448 147.592,248.592 146.878,248.685 146.878 C 248.779 146.878,248.921 146.259,249.003 145.503 C 249.084 144.746,249.224 144.127,249.315 144.127 C 249.406 144.127,249.547 143.365,249.630 142.434 C 249.712 141.503,249.865 140.741,249.969 140.741 C 250.073 140.741,250.159 139.884,250.159 138.836 C 250.159 137.788,250.076 136.931,249.975 136.931 C 249.874 136.931,249.737 136.529,249.671 136.036 C 249.605 135.544,249.450 135.108,249.326 135.066 C 249.202 135.025,249.101 134.868,249.101 134.717 C 249.101 134.320,247.535 132.767,246.952 132.585 C 246.678 132.500,246.387 132.324,246.304 132.194 C 246.199 132.029,243.731 131.938,238.122 131.891 L 230.090 131.825 230.283 131.152 C 230.389 130.782,230.476 130.169,230.476 129.790 C 230.476 129.411,230.563 129.101,230.670 129.101 C 230.776 129.101,230.930 128.386,231.012 127.513 C 231.094 126.640,231.233 125.926,231.320 125.926 C 231.408 125.926,231.543 125.450,231.620 124.868 L 231.761 123.810 257.573 123.810 L 283.386 123.810 283.386 124.353 C 283.386 124.651,283.290 125.075,283.172 125.295 C 283.055 125.515,282.898 126.271,282.825 126.974 C 282.751 127.678,282.615 128.254,282.522 128.254 C 282.430 128.254,282.288 128.921,282.208 129.735 C 282.127 130.550,281.979 131.217,281.877 131.217 C 281.776 131.217,281.693 131.354,281.693 131.521 C 281.693 131.778,280.477 131.834,273.749 131.891 C 268.163 131.938,265.760 132.028,265.653 132.196 C 265.571 132.327,265.193 132.501,264.815 132.583 C 264.437 132.665,264.127 132.812,264.127 132.910 C 264.127 133.008,263.848 133.149,263.507 133.224 C 263.166 133.299,262.773 133.497,262.634 133.664 C 262.496 133.832,262.287 133.968,262.172 133.968 C 261.871 133.968,259.894 136.083,259.894 136.405 C 259.894 136.553,259.751 136.729,259.577 136.796 C 259.402 136.863,259.259 137.064,259.259 137.242 C 259.259 137.420,259.176 137.566,259.075 137.566 C 258.973 137.566,258.829 137.947,258.755 138.413 C 258.680 138.878,258.531 139.259,258.423 139.259 C 258.315 139.259,258.161 139.926,258.081 140.741 C 258.000 141.556,257.859 142.222,257.767 142.222 C 257.675 142.222,257.534 142.841,257.453 143.598 C 257.371 144.354,257.221 144.974,257.118 144.974 C 257.015 144.974,256.931 145.292,256.931 145.681 C 256.931 146.070,256.789 146.855,256.616 147.427 C 256.443 147.998,256.300 148.722,256.299 149.035 C 256.297 149.348,256.207 149.660,256.097 149.728 C 255.987 149.796,255.832 150.515,255.752 151.328 C 255.672 152.140,255.530 152.804,255.435 152.804 C 255.341 152.804,255.198 153.471,255.118 154.286 C 255.037 155.101,254.897 155.767,254.806 155.767 C 254.714 155.767,254.572 156.481,254.491 157.354 C 254.409 158.228,254.264 158.942,254.168 158.942 C 254.072 158.942,253.928 159.608,253.848 160.423 C 253.768 161.238,253.630 161.905,253.542 161.905 C 253.454 161.905,253.316 162.524,253.235 163.280 C 253.154 164.037,253.012 164.656,252.918 164.656 C 252.825 164.656,252.681 165.370,252.600 166.242 C 252.518 167.114,252.371 167.877,252.274 167.937 C 252.176 167.998,252.031 168.665,251.950 169.420 C 251.869 170.176,251.731 170.794,251.643 170.794 C 251.555 170.794,251.415 171.483,251.332 172.327 C 251.249 173.170,251.070 173.928,250.934 174.012 C 250.597 174.220,250.587 180.903,250.924 181.119 C 251.054 181.202,251.233 181.505,251.323 181.791 C 251.554 182.531,253.164 184.077,253.888 184.254 C 254.223 184.337,254.565 184.508,254.648 184.636 C 254.863 184.965,295.402 184.965,295.616 184.636 C 295.699 184.508,296.140 184.345,296.597 184.273 C 297.053 184.201,297.482 184.051,297.551 183.940 C 297.620 183.828,297.937 183.672,298.256 183.592 C 298.575 183.512,298.836 183.361,298.836 183.257 C 298.836 183.154,298.958 183.069,299.107 183.069 C 299.429 183.069,302.011 180.448,302.011 180.120 C 302.011 179.996,302.099 179.894,302.208 179.894 C 302.317 179.894,302.472 179.680,302.554 179.418 C 302.636 179.156,302.761 178.894,302.833 178.836 C 303.043 178.665,303.704 176.597,303.704 176.109 C 303.704 175.863,303.787 175.661,303.888 175.661 C 303.989 175.661,304.138 174.995,304.218 174.180 C 304.299 173.365,304.446 172.698,304.545 172.698 C 304.644 172.698,304.793 171.984,304.875 171.111 C 304.956 170.238,305.102 169.524,305.197 169.524 C 305.293 169.524,305.437 168.857,305.517 168.042 C 305.597 167.228,305.738 166.561,305.829 166.561 C 305.921 166.561,306.063 165.847,306.144 164.974 C 306.226 164.101,306.371 163.386,306.467 163.386 C 306.563 163.386,306.707 162.720,306.787 161.905 C 306.867 161.090,307.005 160.423,307.093 160.423 C 307.180 160.423,307.318 159.805,307.399 159.050 C 307.480 158.294,307.626 157.627,307.724 157.567 C 307.821 157.507,307.968 156.744,308.049 155.872 C 308.131 154.999,308.271 154.286,308.360 154.286 C 308.449 154.286,308.588 153.667,308.669 152.910 C 308.750 152.153,308.895 151.534,308.990 151.534 C 309.085 151.534,309.230 150.772,309.312 149.841 C 309.395 148.910,309.547 148.148,309.652 148.148 C 309.756 148.148,309.842 147.934,309.844 147.672 C 309.845 147.410,309.988 146.728,310.161 146.157 C 310.334 145.585,310.476 144.808,310.476 144.428 C 310.476 144.049,310.569 143.707,310.682 143.668 C 310.795 143.630,310.952 142.907,311.030 142.063 C 311.108 141.220,311.253 140.529,311.353 140.529 C 311.453 140.529,311.534 139.815,311.534 138.942 C 311.534 138.069,311.452 137.354,311.352 137.354 C 311.251 137.354,311.110 136.928,311.039 136.407 C 310.838 134.941,309.338 132.967,308.141 132.593 C 307.854 132.503,307.551 132.324,307.468 132.194 C 307.363 132.029,304.918 131.937,299.373 131.891 L 291.429 131.824 291.429 131.216 C 291.429 130.881,291.516 130.553,291.622 130.487 C 291.729 130.421,291.883 129.654,291.965 128.782 C 292.046 127.909,292.190 127.196,292.283 127.196 C 292.377 127.196,292.519 126.577,292.600 125.820 C 292.681 125.063,292.832 124.444,292.935 124.444 C 293.038 124.444,293.122 124.302,293.122 124.127 C 293.122 123.847,296.179 123.810,319.365 123.810 L 345.608 123.810 345.608 123.069 C 345.608 122.661,345.693 122.328,345.795 122.328 C 345.898 122.328,346.049 121.710,346.130 120.955 C 346.210 120.199,346.355 119.533,346.450 119.474 C 346.545 119.415,346.691 118.699,346.772 117.884 C 346.854 117.068,346.996 116.355,347.087 116.298 C 347.177 116.242,347.318 115.576,347.399 114.818 C 347.480 114.060,347.623 113.439,347.717 113.439 C 347.810 113.439,347.954 112.725,348.036 111.852 C 348.117 110.979,348.262 110.265,348.356 110.265 C 348.451 110.265,348.595 109.598,348.677 108.783 C 348.759 107.968,348.912 107.302,349.016 107.302 C 349.121 107.302,349.206 106.921,349.206 106.455 L 349.206 105.608 338.388 105.608 L 327.570 105.608 327.722 104.392 C 327.805 103.722,327.948 103.127,328.038 103.069 C 328.129 103.011,328.272 102.272,328.356 101.429 C 328.440 100.585,328.585 99.894,328.678 99.894 C 328.771 99.894,328.914 99.323,328.995 98.624 L 329.142 97.354 336.834 97.354 C 341.733 97.354,344.573 97.278,344.656 97.143 C 344.728 97.026,345.020 96.931,345.304 96.931 C 345.879 96.931,348.370 95.705,348.635 95.291 C 348.728 95.146,348.905 95.026,349.029 95.026 C 349.335 95.026,351.534 92.695,351.534 92.370 C 351.534 92.297,351.725 91.994,351.958 91.698 C 352.190 91.402,352.381 90.935,352.381 90.659 C 352.381 90.384,352.467 90.159,352.572 90.159 C 352.677 90.159,352.829 89.587,352.910 88.889 C 352.991 88.190,353.132 87.619,353.223 87.619 C 353.315 87.619,353.456 86.905,353.538 86.032 C 353.620 85.159,353.764 84.444,353.859 84.444 C 353.954 84.444,354.098 83.778,354.180 82.963 C 354.262 82.148,354.402 81.481,354.491 81.481 C 354.581 81.481,354.720 80.815,354.800 80.000 C 354.881 79.185,355.028 78.519,355.127 78.519 C 355.226 78.519,355.375 77.804,355.457 76.931 C 355.538 76.058,355.677 75.344,355.765 75.344 C 355.852 75.344,355.990 74.677,356.070 73.862 C 356.150 73.048,356.296 72.381,356.393 72.381 C 356.490 72.381,356.620 72.024,356.682 71.587 C 356.913 69.970,357.273 68.244,357.449 67.920 C 357.549 67.736,357.699 66.949,357.782 66.171 C 357.865 65.393,358.010 64.709,358.104 64.651 C 358.197 64.593,358.340 63.928,358.421 63.172 C 358.502 62.417,358.641 61.799,358.730 61.799 C 358.819 61.799,358.959 61.085,359.041 60.212 C 359.123 59.339,359.266 58.624,359.358 58.624 C 359.451 58.624,359.596 57.981,359.680 57.196 C 359.764 56.410,359.938 55.702,360.066 55.622 C 360.552 55.319,360.383 48.710,359.861 47.611 C 359.319 46.469,358.208 45.326,357.465 45.144 C 357.171 45.073,356.863 44.910,356.780 44.782 C 356.565 44.451,314.968 44.453,314.754 44.784 C 314.671 44.913,314.246 45.084,313.810 45.164 C 313.373 45.245,313.016 45.391,313.016 45.489 C 313.016 45.588,312.770 45.730,312.469 45.806 C 312.168 45.881,311.705 46.177,311.439 46.464 C 311.174 46.750,310.865 46.984,310.753 46.984 C 310.641 46.984,310.271 47.324,309.931 47.740 C 309.591 48.156,309.146 48.694,308.942 48.937 C 308.738 49.179,308.571 49.505,308.571 49.662 C 308.571 49.819,308.481 49.947,308.369 49.947 C 308.258 49.947,308.105 50.280,308.028 50.688 C 307.952 51.095,307.809 51.429,307.712 51.429 C 307.614 51.429,307.470 52.000,307.391 52.698 C 307.312 53.397,307.174 53.968,307.084 53.968 C 306.995 53.968,306.854 54.635,306.772 55.450 C 306.691 56.265,306.550 56.931,306.461 56.931 C 306.371 56.931,306.232 57.598,306.152 58.413 C 306.072 59.228,305.925 59.894,305.825 59.894 C 305.726 59.894,305.578 60.608,305.496 61.481 C 305.414 62.354,305.275 63.069,305.188 63.069 C 305.100 63.069,304.963 63.735,304.882 64.550 C 304.802 65.365,304.655 66.032,304.556 66.032 C 304.456 66.032,304.308 66.746,304.226 67.619 C 304.144 68.492,303.999 69.206,303.903 69.206 C 303.808 69.206,303.664 69.873,303.583 70.688 C 303.503 71.503,303.354 72.169,303.253 72.169 C 303.152 72.169,303.069 72.497,303.069 72.898 C 303.069 73.298,302.981 73.680,302.874 73.746 C 302.766 73.813,302.613 74.485,302.532 75.240 C 302.451 75.996,302.312 76.614,302.222 76.614 C 302.133 76.614,301.993 77.328,301.912 78.201 C 301.830 79.074,301.681 79.788,301.582 79.788 C 301.483 79.788,301.336 80.455,301.255 81.270 C 301.175 82.085,301.039 82.751,300.952 82.751 C 300.866 82.751,300.730 83.412,300.651 84.219 C 300.569 85.052,300.397 85.723,300.253 85.771 C 299.882 85.895,299.893 93.791,300.265 93.915 C 300.410 93.964,300.529 94.127,300.529 94.278 C 300.529 94.938,302.869 96.931,303.645 96.931 C 303.910 96.931,304.127 97.026,304.127 97.143 C 304.127 97.280,306.861 97.354,311.906 97.354 L 319.686 97.354 319.610 98.307 C 319.568 98.831,319.460 99.259,319.368 99.259 C 319.277 99.259,319.137 99.877,319.056 100.633 C 318.975 101.388,318.831 102.054,318.735 102.113 C 318.640 102.172,318.493 102.911,318.409 103.756 C 318.325 104.600,318.149 105.361,318.017 105.446 C 317.350 105.880,266.243 105.622,266.243 105.185 C 266.243 104.952,266.326 104.762,266.428 104.762 C 266.529 104.762,266.678 104.095,266.758 103.280 C 266.838 102.466,266.982 101.799,267.078 101.799 C 267.174 101.799,267.319 101.085,267.401 100.212 C 267.482 99.339,267.636 98.624,267.743 98.624 C 267.849 98.624,267.937 98.339,267.937 97.989 L 267.937 97.354 275.661 97.354 C 279.910 97.354,283.386 97.272,283.386 97.171 C 283.386 97.070,283.789 96.933,284.281 96.867 C 284.773 96.801,285.210 96.646,285.251 96.522 C 285.292 96.398,285.546 96.296,285.815 96.296 C 286.084 96.296,286.359 96.153,286.426 95.979 C 286.493 95.804,286.693 95.661,286.872 95.661 C 287.050 95.661,287.196 95.573,287.196 95.464 C 287.196 95.355,287.395 95.203,287.639 95.126 C 288.180 94.954,289.735 93.386,289.735 93.013 C 289.735 92.865,289.854 92.698,290.000 92.642 C 290.393 92.491,291.200 90.868,291.351 89.925 C 291.423 89.472,291.558 89.101,291.650 89.101 C 291.743 89.101,291.884 88.481,291.965 87.725 C 292.047 86.968,292.186 86.349,292.275 86.349 C 292.364 86.349,292.504 85.636,292.586 84.763 C 292.667 83.891,292.814 83.128,292.911 83.068 C 293.009 83.008,293.155 82.340,293.236 81.585 C 293.316 80.830,293.454 80.212,293.542 80.212 C 293.630 80.212,293.768 79.545,293.848 78.730 C 293.928 77.915,294.072 77.249,294.168 77.249 C 294.264 77.249,294.409 76.534,294.491 75.661 C 294.572 74.788,294.714 74.074,294.806 74.074 C 294.897 74.074,295.037 73.407,295.118 72.593 C 295.198 71.778,295.342 71.111,295.438 71.111 C 295.533 71.111,295.679 70.397,295.760 69.524 C 295.842 68.651,295.990 67.937,296.090 67.937 C 296.189 67.937,296.336 67.270,296.417 66.455 C 296.497 65.640,296.646 64.974,296.747 64.974 C 296.848 64.974,296.931 64.646,296.931 64.245 C 296.931 63.845,297.019 63.463,297.126 63.397 C 297.234 63.330,297.388 62.657,297.469 61.900 C 297.550 61.143,297.690 60.477,297.781 60.421 C 297.872 60.365,298.013 59.652,298.095 58.836 C 298.177 58.020,298.322 57.305,298.418 57.246 C 298.513 57.187,298.657 56.520,298.738 55.765 C 298.819 55.010,298.969 54.392,299.072 54.392 C 299.175 54.392,299.259 53.153,299.259 51.640 C 299.259 50.127,299.176 48.889,299.075 48.889 C 298.973 48.889,298.829 48.508,298.755 48.042 C 298.680 47.577,298.525 47.196,298.410 47.196 C 298.295 47.196,298.201 47.086,298.201 46.953 C 298.201 46.592,296.873 45.368,296.281 45.183 C 295.998 45.095,295.699 44.916,295.616 44.786 C 295.400 44.448,253.593 44.450,253.379 44.788 C 253.295 44.919,252.918 45.093,252.540 45.175 C 252.161 45.257,251.852 45.402,251.852 45.497 C 251.852 45.591,251.605 45.730,251.304 45.806 C 251.003 45.881,250.503 46.179,250.193 46.466 C 249.883 46.754,249.487 47.041,249.312 47.105 C 248.962 47.232,247.619 48.986,247.619 49.316 C 247.619 49.430,247.534 49.524,247.430 49.524 C 247.327 49.524,247.176 49.785,247.096 50.104 C 247.016 50.423,246.856 50.742,246.740 50.814 C 246.624 50.886,246.476 51.339,246.411 51.821 C 246.346 52.304,246.217 52.698,246.123 52.698 C 246.028 52.698,245.886 53.365,245.806 54.180 C 245.725 54.995,245.589 55.661,245.503 55.661 C 245.416 55.661,245.280 56.328,245.200 57.143 C 245.119 57.958,244.972 58.624,244.873 58.624 C 244.774 58.624,244.625 59.339,244.543 60.212 C 244.462 61.085,244.316 61.799,244.221 61.799 C 244.125 61.799,243.981 62.466,243.901 63.280 C 243.821 64.095,243.682 64.762,243.593 64.762 C 243.504 64.762,243.380 65.119,243.318 65.556 C 243.087 67.173,242.727 68.899,242.551 69.223 C 242.451 69.407,242.301 70.193,242.218 70.969 C 242.135 71.746,241.989 72.381,241.893 72.381 C 241.797 72.381,241.653 73.048,241.573 73.862 C 241.492 74.677,241.355 75.344,241.267 75.344 C 241.180 75.344,241.041 76.058,240.959 76.931 C 240.877 77.804,240.729 78.519,240.630 78.519 C 240.530 78.519,240.383 79.185,240.303 80.000 C 240.223 80.815,240.086 81.481,240.000 81.481 C 239.914 81.481,239.777 82.148,239.697 82.963 C 239.617 83.778,239.470 84.444,239.370 84.444 C 239.271 84.444,239.123 85.159,239.041 86.032 C 238.959 86.905,238.808 87.619,238.705 87.619 C 238.603 87.619,238.519 88.762,238.519 90.159 C 238.519 91.556,238.602 92.698,238.703 92.698 C 238.805 92.698,238.949 93.079,239.023 93.545 C 239.098 94.011,239.253 94.392,239.368 94.392 C 239.483 94.392,239.577 94.501,239.577 94.635 C 239.577 94.936,240.955 96.296,241.259 96.296 C 241.382 96.296,241.481 96.384,241.481 96.491 C 241.481 96.598,241.766 96.748,242.114 96.825 C 242.462 96.901,242.801 97.052,242.867 97.159 C 242.937 97.273,246.257 97.354,250.806 97.354 C 257.615 97.354,258.624 97.395,258.624 97.672 C 258.624 97.847,258.537 97.989,258.430 97.989 C 258.322 97.989,258.168 98.608,258.087 99.365 C 258.006 100.122,257.866 100.741,257.775 100.741 C 257.684 100.741,257.543 101.503,257.460 102.434 C 257.378 103.365,257.231 104.127,257.134 104.127 C 257.037 104.127,256.928 104.437,256.892 104.815 L 256.825 105.503 230.956 105.556 L 205.087 105.610 205.218 104.604 C 205.290 104.051,205.421 103.503,205.508 103.386 C 205.596 103.270,205.735 102.579,205.817 101.852 C 205.900 101.124,206.042 100.529,206.133 100.529 C 206.225 100.529,206.366 99.815,206.448 98.942 L 206.597 97.354 214.304 97.354 C 218.543 97.354,222.011 97.272,222.011 97.172 C 222.011 97.071,222.437 96.930,222.958 96.859 C 223.823 96.740,224.705 96.391,224.974 96.060 C 225.032 95.989,225.294 95.863,225.556 95.781 C 225.817 95.700,226.032 95.544,226.032 95.435 C 226.032 95.327,226.140 95.238,226.272 95.238 C 226.574 95.238,228.439 93.354,228.629 92.857 C 228.706 92.653,228.860 92.487,228.971 92.487 C 229.082 92.487,229.235 92.201,229.312 91.852 C 229.389 91.503,229.517 91.217,229.597 91.217 C 229.829 91.217,230.476 89.212,230.476 88.490 C 230.476 88.127,230.560 87.831,230.663 87.831 C 230.766 87.831,230.916 87.213,230.997 86.457 C 231.078 85.702,231.224 85.035,231.321 84.974 C 231.419 84.914,231.565 84.151,231.647 83.279 C 231.729 82.407,231.872 81.693,231.966 81.693 C 232.059 81.693,232.202 81.074,232.283 80.317 C 232.364 79.561,232.502 78.942,232.590 78.942 C 232.678 78.942,232.815 78.275,232.896 77.460 C 232.976 76.646,233.120 75.979,233.215 75.979 C 233.311 75.979,233.456 75.265,233.538 74.392 C 233.620 73.519,233.762 72.804,233.853 72.804 C 233.945 72.804,234.085 72.138,234.165 71.323 C 234.246 70.508,234.390 69.841,234.485 69.841 C 234.581 69.841,234.726 69.127,234.808 68.254 C 234.890 67.381,235.038 66.667,235.138 66.667 C 235.237 66.667,235.384 66.000,235.464 65.185 C 235.545 64.370,235.682 63.704,235.770 63.704 C 235.857 63.704,235.996 62.989,236.078 62.116 C 236.160 61.243,236.303 60.529,236.397 60.529 C 236.573 60.529,236.638 60.244,237.073 57.566 C 237.214 56.693,237.404 55.927,237.495 55.864 C 237.586 55.801,237.725 55.063,237.803 54.224 C 237.881 53.385,238.026 52.698,238.126 52.698 C 238.381 52.698,238.353 50.424,238.095 50.265 C 237.979 50.193,237.884 49.797,237.884 49.385 C 237.884 47.953,236.213 45.592,234.913 45.185 C 234.626 45.096,234.324 44.916,234.241 44.786 C 234.009 44.424,192.343 44.452,192.222 44.815 C 192.174 44.961,191.761 45.140,191.305 45.213 C 190.849 45.285,190.476 45.417,190.476 45.505 C 190.476 45.593,190.310 45.725,190.106 45.799 C 188.969 46.210,186.349 48.713,186.126 49.602 C 186.049 49.908,185.905 50.159,185.807 50.159 C 185.708 50.159,185.562 50.516,185.482 50.952 C 185.401 51.389,185.249 51.803,185.143 51.872 C 185.037 51.941,184.894 52.536,184.826 53.194 C 184.758 53.853,184.633 54.392,184.548 54.392 C 184.463 54.392,184.328 55.058,184.247 55.873 C 184.167 56.688,184.020 57.354,183.921 57.354 C 183.821 57.354,183.673 58.069,183.591 58.942 C 183.509 59.815,183.369 60.529,183.279 60.529 C 183.189 60.529,183.061 60.839,182.994 61.217 C 182.928 61.595,182.757 62.571,182.616 63.386 C 182.474 64.201,182.293 64.915,182.212 64.974 C 182.132 65.032,181.999 65.722,181.916 66.508 C 181.833 67.294,181.689 67.937,181.595 67.937 C 181.502 67.937,181.358 68.651,181.277 69.524 C 181.195 70.397,181.047 71.111,180.947 71.111 C 180.848 71.111,180.701 71.778,180.620 72.593 C 180.540 73.407,180.403 74.074,180.315 74.074 C 180.227 74.074,180.089 74.788,180.007 75.661 C 179.925 76.534,179.777 77.249,179.677 77.249 C 179.578 77.249,179.431 77.915,179.351 78.730 C 179.270 79.545,179.131 80.212,179.042 80.212 C 178.952 80.212,178.812 80.878,178.730 81.693 C 178.648 82.508,178.505 83.175,178.413 83.175 C 178.320 83.175,178.175 83.865,178.091 84.709 C 178.007 85.553,177.831 86.311,177.700 86.394 C 177.369 86.603,177.366 93.500,177.696 93.711 C 177.826 93.794,178.001 94.081,178.084 94.349 C 178.250 94.880,179.572 96.296,179.901 96.296 C 180.014 96.296,180.106 96.390,180.106 96.505 C 180.106 96.620,180.487 96.775,180.952 96.850 C 181.418 96.924,181.799 97.068,181.799 97.170 C 181.799 97.272,185.268 97.354,189.520 97.354 L 197.241 97.354 197.106 98.360 C 197.032 98.913,196.891 99.397,196.793 99.436 C 196.694 99.474,196.614 99.874,196.614 100.323 C 196.614 100.772,196.530 101.191,196.427 101.254 C 196.324 101.318,196.174 101.989,196.093 102.746 C 196.012 103.503,195.858 104.177,195.751 104.243 C 195.643 104.309,195.556 104.644,195.556 104.986 L 195.556 105.608 169.622 105.608 C 144.433 105.608,143.695 105.597,143.899 105.216 C 144.014 105.000,144.174 104.191,144.253 103.417 C 144.332 102.644,144.467 102.011,144.552 102.011 C 144.637 102.011,144.774 101.416,144.857 100.690 C 144.939 99.964,145.086 99.273,145.184 99.155 C 145.282 99.037,145.394 98.607,145.432 98.200 L 145.503 97.460 153.280 97.405 C 158.222 97.370,161.058 97.273,161.058 97.140 C 161.058 97.025,161.259 96.931,161.504 96.931 C 162.070 96.931,164.656 95.707,164.656 95.439 C 164.656 95.328,164.788 95.238,164.950 95.238 C 165.355 95.238,167.546 93.049,167.734 92.458 C 167.818 92.194,168.017 91.847,168.176 91.688 C 168.335 91.529,168.466 91.215,168.466 90.990 C 168.466 90.766,168.554 90.582,168.662 90.582 C 168.770 90.582,168.924 90.058,169.004 89.418 C 169.084 88.778,169.222 88.254,169.312 88.254 C 169.401 88.254,169.541 87.540,169.623 86.667 C 169.705 85.794,169.848 85.079,169.942 85.079 C 170.118 85.079,170.183 84.794,170.618 82.116 C 170.759 81.243,170.942 80.481,171.024 80.423 C 171.107 80.365,171.243 79.746,171.327 79.048 C 171.412 78.349,171.554 77.683,171.643 77.566 C 171.732 77.450,171.872 76.759,171.955 76.031 C 172.038 75.304,172.181 74.661,172.274 74.604 C 172.367 74.546,172.511 73.832,172.593 73.017 C 172.674 72.201,172.815 71.534,172.904 71.534 C 172.994 71.534,173.133 70.868,173.213 70.053 C 173.293 69.238,173.437 68.571,173.533 68.571 C 173.629 68.571,173.774 67.857,173.856 66.984 C 173.937 66.111,174.086 65.397,174.185 65.397 C 174.285 65.397,174.432 64.730,174.512 63.915 C 174.592 63.101,174.730 62.434,174.817 62.434 C 174.905 62.434,175.044 61.720,175.125 60.847 C 175.207 59.974,175.356 59.259,175.455 59.259 C 175.554 59.259,175.701 58.593,175.782 57.778 C 175.862 56.963,175.999 56.296,176.087 56.296 C 176.175 56.296,176.314 55.582,176.395 54.709 C 176.477 53.836,176.631 53.122,176.738 53.122 C 176.844 53.122,176.931 52.407,176.931 51.534 C 176.931 50.661,176.849 49.947,176.749 49.947 C 176.649 49.947,176.508 49.448,176.435 48.837 C 176.363 48.227,176.207 47.695,176.089 47.656 C 175.970 47.616,175.873 47.460,175.873 47.309 C 175.873 46.912,174.308 45.360,173.724 45.177 C 173.451 45.092,173.160 44.916,173.076 44.786 C 172.861 44.450,131.054 44.450,130.839 44.786 C 130.756 44.916,130.450 45.090,130.159 45.173 C 129.234 45.438,128.254 45.939,128.254 46.147 C 128.254 46.258,128.122 46.349,127.960 46.349 C 127.571 46.349,125.367 48.527,125.190 49.087 C 125.113 49.327,124.970 49.524,124.870 49.524 C 124.771 49.524,124.627 49.810,124.550 50.159 C 124.474 50.508,124.330 50.794,124.231 50.794 C 124.132 50.794,123.986 51.317,123.906 51.958 C 123.826 52.598,123.676 53.122,123.573 53.122 C 123.471 53.122,123.386 53.449,123.386 53.850 C 123.386 54.250,123.300 54.631,123.195 54.696 C 123.090 54.761,122.937 55.409,122.854 56.137 C 122.772 56.865,122.630 57.556,122.540 57.672 C 122.449 57.788,122.308 58.479,122.225 59.206 C 122.142 59.934,122.000 60.529,121.909 60.529 C 121.818 60.529,121.676 61.243,121.594 62.116 C 121.512 62.989,121.371 63.704,121.279 63.704 C 121.188 63.704,121.047 64.370,120.967 65.185 C 120.887 66.000,120.740 66.667,120.640 66.667 C 120.541 66.667,120.392 67.381,120.311 68.254 C 120.229 69.127,120.084 69.841,119.988 69.841 C 119.892 69.841,119.748 70.508,119.668 71.323 C 119.588 72.138,119.449 72.804,119.359 72.804 C 119.270 72.804,119.129 73.471,119.048 74.286 C 118.966 75.101,118.821 75.767,118.727 75.767 C 118.632 75.767,118.488 76.481,118.406 77.354 C 118.324 78.228,118.184 78.942,118.095 78.942 C 118.006 78.942,117.867 79.560,117.786 80.315 C 117.705 81.071,117.559 81.738,117.462 81.798 C 117.364 81.858,117.218 82.621,117.136 83.493 C 117.054 84.366,116.914 85.079,116.824 85.079 C 116.734 85.079,116.611 85.389,116.551 85.767 C 116.491 86.146,116.340 86.836,116.215 87.302 C 115.640 89.454,116.107 93.966,116.955 94.455 C 117.117 94.548,117.249 94.722,117.249 94.842 C 117.249 95.130,118.423 96.296,118.714 96.296 C 118.839 96.296,118.942 96.387,118.942 96.498 C 118.942 96.609,119.275 96.763,119.683 96.839 C 120.090 96.916,120.423 97.063,120.423 97.166 C 120.423 97.273,123.785 97.354,128.150 97.354 L 135.877 97.354 135.737 98.571 C 135.660 99.241,135.526 99.836,135.440 99.894 C 135.353 99.952,135.213 100.643,135.130 101.429 C 135.046 102.214,134.904 102.857,134.815 102.857 C 134.726 102.857,134.586 103.476,134.505 104.233 L 134.358 105.608 108.290 105.592 C 93.953 105.583,82.336 105.529,82.475 105.472 C 82.616 105.415,82.793 104.715,82.873 103.902 C 82.953 103.094,83.101 102.434,83.202 102.434 C 83.303 102.434,83.386 102.053,83.386 101.587 C 83.386 101.122,83.469 100.741,83.571 100.741 C 83.672 100.741,83.821 100.158,83.901 99.447 C 84.159 97.173,83.446 97.354,92.102 97.354 C 96.258 97.354,99.709 97.272,99.771 97.170 C 99.834 97.069,100.196 96.924,100.576 96.848 C 101.451 96.673,102.434 96.242,102.434 96.033 C 102.434 95.945,102.580 95.873,102.758 95.873 C 102.936 95.873,103.137 95.730,103.204 95.556 C 103.271 95.381,103.469 95.238,103.644 95.238 C 104.009 95.238,106.243 93.075,106.243 92.721 C 106.243 92.592,106.337 92.487,106.451 92.487 C 106.565 92.487,106.718 92.249,106.791 91.958 C 106.864 91.667,107.008 91.429,107.110 91.429 C 107.213 91.429,107.358 91.048,107.432 90.582 C 107.506 90.116,107.643 89.735,107.735 89.735 C 107.827 89.735,107.969 89.116,108.050 88.360 C 108.131 87.603,108.270 86.984,108.360 86.984 C 108.449 86.984,108.589 86.270,108.670 85.397 C 108.752 84.524,108.897 83.810,108.991 83.810 C 109.086 83.810,109.230 83.143,109.312 82.328 C 109.394 81.513,109.547 80.847,109.651 80.847 C 109.756 80.847,109.841 80.485,109.841 80.042 C 109.841 79.600,109.936 79.143,110.052 79.028 C 110.167 78.912,110.324 78.226,110.399 77.504 C 110.475 76.782,110.610 76.190,110.700 76.190 C 110.790 76.190,110.930 75.476,111.012 74.603 C 111.094 73.730,111.236 73.016,111.327 73.016 C 111.418 73.016,111.560 72.421,111.643 71.693 C 111.726 70.966,111.867 70.275,111.958 70.159 C 112.048 70.042,112.190 69.352,112.272 68.624 C 112.355 67.896,112.499 67.254,112.592 67.196 C 112.685 67.139,112.828 66.425,112.910 65.609 C 112.992 64.794,113.135 64.127,113.228 64.127 C 113.320 64.127,113.463 63.460,113.545 62.646 C 113.627 61.831,113.768 61.164,113.859 61.164 C 113.950 61.164,114.091 60.450,114.173 59.577 C 114.255 58.704,114.398 57.989,114.491 57.989 C 114.584 57.989,114.728 57.347,114.812 56.561 C 114.896 55.775,115.073 55.065,115.204 54.983 C 115.534 54.777,115.543 48.510,115.214 48.299 C 115.084 48.216,114.905 47.916,114.817 47.633 C 114.588 46.901,112.732 45.079,112.215 45.079 C 111.977 45.079,111.742 44.960,111.693 44.815 C 111.608 44.561,72.446 44.352,70.529 44.595 M215.737 53.245 C 223.793 55.318,226.766 63.535,223.233 73.968 C 220.391 82.360,214.230 87.652,205.948 88.814 C 193.916 90.503,187.500 80.731,192.105 67.730 C 195.829 57.215,206.277 50.811,215.737 53.245 M91.958 53.426 C 98.163 54.539,100.790 58.459,99.265 64.332 C 97.395 71.534,90.225 76.068,81.644 75.476 C 79.855 75.353,79.791 75.364,79.682 75.823 C 79.582 76.239,79.072 78.658,78.312 82.328 C 78.081 83.441,77.834 84.575,77.240 87.249 L 76.969 88.466 73.829 88.466 C 70.887 88.466,70.688 88.440,70.688 88.064 C 70.688 87.727,72.510 78.939,73.545 74.286 C 73.714 73.529,74.574 69.481,75.456 65.291 C 76.339 61.101,77.198 57.094,77.366 56.389 C 77.534 55.683,77.672 54.963,77.672 54.789 C 77.672 53.930,78.190 53.694,80.657 53.430 C 84.119 53.059,89.900 53.057,91.958 53.426 M153.333 53.421 C 158.521 54.338,160.635 56.463,160.635 60.765 C 160.635 65.056,158.177 68.911,154.165 70.910 C 153.358 71.311,152.656 71.667,152.604 71.699 C 152.553 71.731,152.855 72.042,153.276 72.389 C 155.104 73.896,155.522 75.305,155.784 80.847 C 155.897 83.233,156.071 85.852,156.171 86.667 C 156.405 88.573,156.565 88.487,152.909 88.419 L 149.765 88.360 149.597 87.729 C 149.504 87.382,149.322 85.001,149.191 82.438 C 148.802 74.821,148.389 74.210,143.613 74.190 L 141.088 74.180 140.729 75.661 C 140.532 76.476,139.926 79.286,139.384 81.905 C 138.841 84.524,138.293 87.071,138.166 87.566 L 137.934 88.466 134.787 88.466 C 132.176 88.466,131.640 88.413,131.640 88.158 C 131.640 87.880,132.443 83.972,133.229 80.423 C 133.397 79.667,134.254 75.619,135.135 71.429 C 136.015 67.238,136.822 63.429,136.927 62.963 C 137.032 62.497,137.277 61.354,137.471 60.423 C 137.665 59.492,137.947 58.206,138.099 57.566 C 138.250 56.926,138.440 55.954,138.522 55.406 C 138.603 54.859,138.782 54.257,138.919 54.069 C 139.505 53.268,149.838 52.804,153.333 53.421 M283.175 53.704 C 283.175 53.907,282.963 55.097,282.703 56.346 L 282.230 58.619 275.348 58.674 L 268.466 58.730 268.216 59.743 C 268.078 60.300,267.660 62.204,267.286 63.975 C 266.913 65.747,266.562 67.410,266.506 67.672 L 266.406 68.148 272.661 68.148 C 276.102 68.148,278.968 68.231,279.030 68.332 C 279.193 68.594,278.325 72.897,278.005 73.414 C 277.902 73.580,275.972 73.651,271.554 73.651 L 265.248 73.651 264.904 75.185 C 264.714 76.029,264.004 79.339,263.326 82.540 L 262.093 88.360 259.052 88.419 C 257.380 88.451,255.934 88.400,255.838 88.304 C 255.680 88.145,255.873 86.939,256.610 83.492 C 256.759 82.794,257.044 81.460,257.242 80.529 C 257.440 79.598,257.725 78.265,257.877 77.566 C 258.028 76.868,258.302 75.582,258.485 74.709 C 258.863 72.912,260.032 67.419,260.309 66.138 C 260.410 65.672,260.640 64.577,260.821 63.704 C 261.002 62.831,261.298 61.450,261.478 60.635 C 261.929 58.591,262.434 56.183,262.674 54.921 C 262.785 54.339,262.916 53.743,262.965 53.598 C 263.129 53.118,283.175 53.223,283.175 53.704 M337.014 53.508 C 337.073 53.604,336.998 54.199,336.845 54.831 C 336.472 56.380,336.269 57.324,335.138 62.751 C 334.604 65.312,334.028 68.050,333.856 68.836 C 333.685 69.622,333.405 70.907,333.233 71.693 C 333.062 72.479,332.205 76.487,331.330 80.600 C 330.455 84.713,329.684 88.165,329.619 88.272 C 329.476 88.503,323.452 88.536,323.319 88.307 C 323.268 88.220,323.408 87.291,323.630 86.243 C 323.853 85.196,324.173 83.672,324.342 82.857 C 324.511 82.042,324.797 80.709,324.977 79.894 C 325.157 79.079,325.442 77.746,325.609 76.931 C 325.776 76.116,326.160 74.307,326.460 72.910 C 327.112 69.888,328.140 65.068,328.605 62.857 C 328.788 61.984,329.059 60.698,329.206 60.000 C 329.353 59.302,329.677 57.730,329.925 56.508 C 330.632 53.033,330.261 53.333,333.845 53.333 C 335.529 53.333,336.955 53.412,337.014 53.508 M84.582 58.197 C 83.273 58.435,83.460 58.076,82.637 61.940 C 82.244 63.783,81.714 66.254,81.457 67.432 C 80.801 70.447,80.695 70.335,84.077 70.211 C 88.429 70.051,90.680 68.844,92.165 65.873 C 94.733 60.737,91.063 57.022,84.582 58.197 M145.714 58.093 C 145.598 58.132,145.250 58.219,144.942 58.287 C 144.309 58.426,144.457 57.940,143.076 64.446 C 142.606 66.658,142.222 68.634,142.222 68.837 C 142.222 69.767,148.649 69.186,150.525 68.087 C 154.176 65.947,155.278 60.648,152.419 58.979 C 151.089 58.201,147.006 57.662,145.714 58.093 M207.725 58.371 C 198.094 61.796,193.794 78.822,201.513 82.968 C 208.379 86.656,216.779 78.777,217.691 67.794 C 218.257 60.978,213.375 56.362,207.725 58.371 M95.025 141.429 C 95.135 141.690,95.759 143.286,96.412 144.974 C 97.571 147.971,97.984 149.032,99.977 154.128 C 101.410 157.791,102.542 161.238,103.357 164.423 L 104.080 167.246 104.320 165.686 C 105.037 161.033,106.257 154.685,107.955 146.772 C 108.305 145.143,108.711 143.190,108.858 142.434 L 109.125 141.058 112.129 140.999 C 115.556 140.932,115.346 140.780,114.823 142.949 C 114.654 143.655,114.220 145.661,113.861 147.407 C 113.501 149.153,113.062 151.249,112.884 152.063 C 112.706 152.878,112.429 154.164,112.268 154.921 C 111.716 157.509,111.293 159.471,111.105 160.317 C 111.001 160.783,110.338 163.926,109.632 167.302 C 108.926 170.677,108.228 173.963,108.080 174.603 L 107.812 175.767 104.435 175.822 L 101.058 175.878 98.541 169.156 C 97.156 165.459,95.847 162.035,95.631 161.546 C 95.165 160.492,92.275 151.857,92.275 151.517 C 92.275 151.388,92.121 150.752,91.933 150.104 C 91.548 148.782,91.356 148.896,91.125 150.582 C 90.895 152.264,89.936 157.216,88.893 162.116 C 88.534 163.804,88.103 165.852,87.936 166.667 C 87.769 167.481,87.386 169.291,87.085 170.688 C 86.784 172.085,86.420 173.799,86.276 174.497 L 86.013 175.767 82.982 175.826 L 79.951 175.885 80.099 175.297 C 80.236 174.754,81.040 170.988,81.829 167.196 C 82.010 166.323,82.281 165.037,82.430 164.339 C 82.580 163.640,82.908 162.069,83.160 160.847 C 83.412 159.624,83.750 158.053,83.912 157.354 C 84.074 156.656,84.501 154.656,84.861 152.910 C 85.221 151.164,85.656 149.093,85.827 148.307 C 85.998 147.521,86.280 146.212,86.455 145.397 C 86.630 144.582,86.926 143.249,87.113 142.434 L 87.453 140.952 91.138 140.952 C 94.760 140.952,94.827 140.961,95.025 141.429 M173.116 141.429 C 173.113 141.690,172.896 142.857,172.635 144.021 L 172.159 146.138 165.155 146.193 L 158.150 146.249 158.019 147.040 C 157.947 147.475,157.752 148.450,157.586 149.206 C 157.100 151.421,156.616 153.704,156.476 154.444 L 156.347 155.132 162.829 155.132 L 169.312 155.132 169.312 155.684 C 169.312 156.194,168.833 158.549,168.477 159.788 L 168.325 160.317 161.764 160.373 L 155.203 160.429 154.844 162.172 C 154.398 164.339,153.932 166.480,153.533 168.192 C 153.365 168.914,153.228 169.747,153.228 170.043 L 153.228 170.582 160.443 170.582 L 167.659 170.582 167.518 171.587 C 167.440 172.140,167.208 173.307,167.001 174.180 L 166.625 175.767 156.275 175.822 C 150.583 175.853,145.818 175.836,145.686 175.785 C 145.514 175.720,145.559 175.165,145.844 173.826 C 146.267 171.839,146.292 171.724,147.300 166.984 C 147.660 165.296,148.090 163.249,148.257 162.434 C 148.424 161.619,148.856 159.571,149.216 157.884 C 149.576 156.196,150.144 153.529,150.478 151.958 C 151.603 146.664,152.349 143.181,152.595 142.063 L 152.839 140.952 162.981 140.952 L 173.122 140.952 173.116 141.429 M236.934 141.640 C 236.859 142.019,236.654 142.995,236.478 143.810 C 236.302 144.624,236.117 145.504,236.066 145.763 C 235.973 146.234,235.957 146.236,230.949 146.292 L 225.926 146.349 225.579 147.831 C 225.388 148.646,225.073 150.074,224.879 151.005 C 224.684 151.937,224.442 153.079,224.341 153.545 C 223.876 155.677,223.430 157.783,222.232 163.492 C 221.523 166.868,220.814 170.201,220.656 170.899 C 220.499 171.598,220.193 173.003,219.978 174.021 L 219.587 175.873 216.354 175.873 C 214.576 175.873,213.122 175.841,213.122 175.802 C 213.122 175.763,213.411 174.358,213.765 172.680 C 214.119 171.002,214.559 168.915,214.742 168.042 C 214.926 167.169,215.200 165.884,215.351 165.185 C 215.502 164.487,215.774 163.201,215.956 162.328 C 216.570 159.375,217.533 154.831,218.287 151.323 C 218.700 149.402,219.064 147.497,219.096 147.090 L 219.153 146.349 214.339 146.292 C 211.690 146.261,209.524 146.166,209.524 146.081 C 209.524 145.996,209.677 145.164,209.864 144.233 C 210.052 143.302,210.250 142.302,210.305 142.011 C 210.360 141.720,210.442 141.362,210.487 141.217 C 210.551 141.009,213.404 140.952,223.820 140.952 L 237.071 140.952 236.934 141.640 " stroke="none" fill="#abc5d0" fill-rule="evenodd"></path></g></svg>