<?xml version='1.0' encoding='utf-8'?>
<!DOCTYPE svg PUBLIC '-//W3C//DTD SVG 1.1//EN' 'http://www.w3.org/Graphics/SVG/1.1/DTD/svg11.dtd'>
<svg version="1.1" xmlns="http://www.w3.org/2000/svg" viewBox="0 0 512 512" xmlns:xlink="http://www.w3.org/1999/xlink" enable-background="new 0 0 512 512">
  <g>
    <g>
      <path d="M470.9,11H41.1C24.5,11,11,24.5,11,41.1v429.8c0,16.6,13.5,30.1,30.1,30.1h429.8c16.6,0,30.1-13.5,30.1-30.1V41.1    C501,24.5,487.5,11,470.9,11z M460.2,460.2H51.8V208.8h408.3V460.2z M460.2,168H51.8V51.8h408.3V168z"/>
      <path d="m376.5,130.3h11.5c11.3,0 20.4-9.1 20.4-20.4 0-11.3-9.1-20.4-20.4-20.4h-11.5c-11.3,0-20.4,9.1-20.4,20.4 0,11.3 9.2,20.4 20.4,20.4z"/>
      <path d="m282.4,130.3h11.5c11.3,0 20.4-9.1 20.4-20.4 0-11.3-9.1-20.4-20.4-20.4h-11.5c-11.3,0-20.4,9.1-20.4,20.4 0,11.3 9.1,20.4 20.4,20.4z"/>
      <path d="m212.7,426.2c13.2,5.9 23.7-2.4 27.2-9.7l69.1-146.6c4.8-10.2 0.4-22.4-9.8-27.2-10.2-4.8-22.4-0.5-27.2,9.8l-69,146.5c-4.9,10.2-0.6,22.6 9.7,27.2z"/>
      <path d="m321.8,291.3l50.2,43.2-50.2,43.2c-7.4,6.4-7.4,16.8 0,23.2 9.8,8.5 22.5,3.8 26.9,0l63.7-54.8c7.4-6.4 7.4-16.8 0-23.2l-63.7-54.8c-7.4-6.4-19.5-6.4-26.9,0-7.4,6.4-7.4,16.8 0,23.2z"/>
      <path d="m99.6,346l63.7,54.8c7.4,6.4 19.5,6.4 26.9,0 7.4-6.4 7.4-16.8 0-23.2l-50.2-43.1 50.2-43.2c7.4-6.4 7.4-16.8 0-23.2-9.8-8.5-22.5-3.8-26.9,0l-63.7,54.8c-7.5,6.4-7.5,16.7 1.42109e-14,23.1z"/>
    </g>
  </g>
</svg>
